<?xml version="1.0" encoding="UTF-8"?>
<svg width="23px" height="21px" viewBox="0 0 23 21" version="1.1" xmlns="http://www.w3.org/2000/svg" xmlns:xlink="http://www.w3.org/1999/xlink">
    <!-- Generator: Sketch 63.1 (92452) - https://sketch.com -->
    <title>cart_blanco</title>
    <desc>Created with Sketch.</desc>
    <g id="Symbols" stroke="none" stroke-width="1" fill="none" fill-rule="evenodd">
        <g id="Menú-Copy-5" transform="translate(-1136.000000, -62.000000)" fill="#FFFFFF">
            <g id="cart_blanco" transform="translate(1136.000000, 62.000000)">
                <g id="Group">
                    <path d="M12.5,1 C13.0522847,1 13.5,1.44771525 13.5,2 L13.5,3.5 L15,3.5 C15.5522847,3.5 16,3.94771525 16,4.5 C16,5.05228475 15.5522847,5.5 15,5.5 L13.5,5.5 L13.5,7 C13.5,7.55228475 13.0522847,8 12.5,8 C11.9477153,8 11.5,7.55228475 11.5,7 L11.5,5.499 L10,5.5 C9.44771525,5.5 9,5.05228475 9,4.5 C9,3.94771525 9.44771525,3.5 10,3.5 L11.5,3.499 L11.5,2 C11.5,1.44771525 11.9477153,1 12.5,1 Z" id="Combined-Shape"></path>
                    <path d="M2.55060242,1.77635684e-15 C3.70869283,1.77635684e-15 4.4371663,0.540350895 4.73602283,1.62105268 L4.78185432,1.8061729 L4.91409475,2.45238888 C4.94132833,2.51620946 4.9622875,2.58385476 4.9760719,2.65471766 L6.5474491,10.7433565 C6.56146069,10.7927635 6.56846648,10.847976 6.56846648,10.908994 C6.56846648,10.9531058 6.74771677,12.2370594 6.75298349,12.2777463 C6.79725924,12.6197888 7.28241257,12.86054 8.2084435,13 L8.21034161,13.0020351 L8.24471922,13 L18.9854323,13 C19.5377171,13 19.9854323,13.4477153 19.9854323,14 C19.9854323,14.5522847 19.5377171,15 18.9854323,15 L8.24471922,15 C8.18257846,15 8.12176153,14.994332 8.06275721,14.9834848 C7.9390774,14.9942943 7.80194296,15 7.65257606,15 C6.08663367,15 5.12826196,14.0329697 4.77746093,12.098909 L4.76847427,12.050324 C4.74910105,11.9460764 4.7001638,11.6839589 4.6216625,11.2639712 C4.61933699,11.2585953 4.61789153,11.2541558 4.61647547,11.2497007 L4.58757948,11.1363518 L3.01429905,3.03660343 L3.00402122,2.96260577 C2.94498013,2.63667136 2.91545958,2.40642731 2.91545958,2.27187363 C2.91545958,2.08710965 2.80419742,1.99462974 2.58167309,1.99443389 L2.47949355,2 L1.76950056,2 C1.76281357,1.99991924 1.75541469,2 1.74799695,2 L1,2 C0.44771525,2 7.46408049e-14,1.55228475 7.46069873e-14,1 C7.45393519e-14,0.44771525 0.44771525,6.76353751e-17 1,0 L2.55060242,1.77635684e-15 Z M20.5355155,1.54836876 C20.6784052,1.0154854 21.2262275,0.699333114 21.7591109,0.842222857 C22.2922452,0.985179883 22.6086282,1.53317197 22.4658649,2.06635817 L22.4658649,2.06635817 L21.0430648,7.38017249 L21.0430648,7.38017249 C21.0290978,7.4322601 21.0114082,7.48195328 20.9902859,7.5293818 L20.7265509,8.54558227 C20.5380614,9.40918124 20.1493044,10.1032435 19.5602799,10.627769 C18.9712554,11.1522946 17.842543,11.3597049 16.1741427,11.25 L16.1741427,9.25 L17.7502385,9.25 C18.1978593,9.20657138 18.5066544,8.90506658 18.6766237,8.3454856 C18.846593,7.78590462 19.0487485,7.05390632 19.2830901,6.14949072 L19.301,6.155 Z" id="Combined-Shape"></path>
                    <rect id="Rectangle" x="5" y="9.25" width="13" height="2" rx="1"></rect>
                    <circle id="Oval" cx="6.75" cy="18.25" r="2"></circle>
                    <circle id="Oval" cx="18" cy="18.25" r="2"></circle>
                </g>
            </g>
        </g>
    </g>
</svg>