<?xml version="1.0" encoding="UTF-8"?>
<svg width="88px" height="99px" viewBox="0 0 88 99" version="1.1" xmlns="http://www.w3.org/2000/svg" xmlns:xlink="http://www.w3.org/1999/xlink">
    <!-- Generator: Sketch 63.1 (92452) - https://sketch.com -->
    <title>formas_pago</title>
    <desc>Created with Sketch.</desc>
    <g id="Page-1" stroke="none" stroke-width="1" fill="none" fill-rule="evenodd">
        <g id="Home" transform="translate(-557.000000, -4444.000000)">
            <g id="formas_pago" transform="translate(557.000000, 4444.000000)">
                <polygon id="Path-5" fill="#F4972A" points="57.8387841 18.9534537 59.8848667 40.1607059 62.5729868 40.8461145 65.2277592 20.5394307"></polygon>
                <path d="M35.1700069,32.3131454 L27.8782538,39.4389575 L22.8202735,52.9328455 L2.67831119,60.969842 C0.40544107,61.2027077 -0.420825702,62.557622 0.199510877,65.0345848 C0.819847455,67.5115477 1.03965958,71.0962081 0.858947254,75.7885663 L45.1672,98.1857092 L80.0356266,79.9877195 C82.1273308,78.5139614 83.1731829,76.5137628 83.1731829,73.9871237 C83.1731829,71.4604846 83.7688334,59.8908149 84.9601345,39.2781145 L35.1700069,32.3131454 Z" id="Path-6" fill="#D8D8D8"></path>
                <path d="M84.9601345,39.2781145 L72.8493451,48.6130058 L69.2205566,69.3971177 L44.2490657,81.7406046 L45.1672,98.1857092 L76.9461691,81.7406046 C81.0240982,78.7152863 83.0630627,75.6970556 83.0630627,72.6859124 C83.0630627,69.6747691 83.69542,58.5388365 84.9601345,39.2781145 Z" id="Path-7" fill="#BCBCBC"></path>
                <polygon id="Path-8" fill="#F8F8F8" points="26.6697917 52.9328455 49.478293 60.291475 52.5807022 47.5052062 30.110574 43.2781311"></polygon>
                <polygon id="Path-2" fill="#D8D8D8" points="37.7349576 5.13423657 82.0347758 -5.88897819e-14 82.0347758 24.6032574 40.5884765 21.3488455"></polygon>
                <polygon id="Path-3" fill="#BCBCBC" points="87.8854931 1.12 82.0347758 -5.88897819e-14 82.0347758 24.6032574 87.8854931 22.9002506"></polygon>
                <polygon id="Path-4" fill="#F8F8F8" points="41.0989248 6.78248305 42.7192269 18.1938365 77.8829817 19.7428354 77.8829817 2.56476621"></polygon>
                <polygon id="Path-9" fill="#F4972A" points="5.21394669 64.0208455 45.1816628 78.8048455 61.5332716 69.6208455 21.3201039 55.7328455"></polygon>
                <polygon id="Path-10" fill="#BCBCBC" points="1.86779024 64.0208457 42.4800672 80.4638781 43.344781 95.6048455 1.86779024 75.5399274"></polygon>
            </g>
        </g>
    </g>
</svg>