<?xml version="1.0" encoding="UTF-8"?>
<svg width="233px" height="34px" viewBox="0 0 233 34" version="1.1" xmlns="http://www.w3.org/2000/svg" xmlns:xlink="http://www.w3.org/1999/xlink">
    <!-- Generator: Sketch 63.1 (92452) - https://sketch.com -->
    <title>logo_txt_blanco</title>
    <desc>Created with Sketch.</desc>
    <defs>
        <polygon id="path-1" points="0 0 232.05 0 232.05 21.25 0 21.25"></polygon>
    </defs>
    <g id="Symbols" stroke="none" stroke-width="1" fill="none" fill-rule="evenodd">
        <g id="Menú-Copy-9" transform="translate(-160.000000, -50.000000)">
            <g id="logo_txt_blanco" transform="translate(160.000000, 50.000000)">
                <text id="El-Portal-Ferretero" font-family="HelveticaNeue-Italic, Helvetica Neue" font-size="10.2" font-style="italic" font-weight="normal" fill="#FFFFFF">
                    <tspan x="84.15" y="32.1">El Portal Ferretero #1 en México</tspan>
                </text>
                <g id="Group-31">
                    <mask id="mask-2" fill="white">
                        <use xlink:href="#path-1"></use>
                    </mask>
                    <g id="Clip-2"></g>
                    <path d="M25.3335434,20.8353305 L30.7741863,20.8353305 L30.7741863,0.389110297 L25.3335434,0.389110297 L25.3335434,20.8353305 Z M24.9110881,20.8353305 L23.5897673,20.8353305 C21.7874443,20.8353305 20.7347499,19.7847327 20.7347499,17.990629 L20.7347499,3.23762656 C20.7347499,1.47251544 21.8410165,0.389491778 23.5897673,0.389491778 L24.9110881,0.389491778 L24.9110881,20.8353305 Z M20.3337235,12.8753546 C20.3337235,12.8753546 16.9441318,10.6459814 13.3582362,12.8753546 C9.77272318,15.1054906 3.65400891,12.8753546 3.65400891,12.8753546 C2.65450412,12.4919665 1.97949399,11.9491195 1.97949399,11.9491195 C3.00195831,10.9339994 1.97949399,9.63543911 1.97949399,9.63543911 C1.97949399,9.63543911 2.65450412,9.09373654 3.65400891,8.71034845 C3.65400891,8.71034845 9.77272318,6.48097533 13.3582362,8.71034845 C16.9441318,10.9397216 20.3337235,8.71034845 20.3337235,8.71034845 L20.3337235,12.8753546 Z M41.4499842,4.78796406 C40.4623419,2.69134622 42.5,0 42.5,0 L30.7741863,0 L23.2687165,0 C21.640886,0 20.3207131,1.31877872 20.3207131,2.94350495 L20.3337235,8.34946772 C20.3337235,8.34946772 16.9441318,10.5822742 13.3582362,8.34946772 C9.77272318,6.11971313 3.65400891,8.34946772 3.65400891,8.34946772 C1.43497051,9.17194008 0.101787242,10.6444555 0.101787242,10.6444555 L0,10.7936145 L0.101787242,10.9412475 C0.101787242,10.9412475 1.43497051,12.4149074 3.65400891,13.2347094 C3.65400891,13.2347094 9.77272318,15.462938 13.3582362,13.2347094 C16.9441318,11.0049548 20.3337235,13.2347094 20.3337235,13.2347094 L20.3207131,18.3049691 C20.3207131,19.9293139 21.640886,21.2438963 23.2687165,21.2438963 L30.7741863,21.25 L41.120515,21.25 C41.120515,21.25 42.1311169,18.7451978 41.2498537,17.5114893 C40.1328726,15.9394074 41.2498537,13.7081269 41.2498537,13.7081269 C42.7977085,11.9693379 41.383019,10.625763 41.383019,10.625763 C40.5293072,9.5763096 41.6459056,8.13278669 41.6459056,8.13278669 C43.0288345,7.01924458 41.4499842,4.78796406 41.4499842,4.78796406 L41.4499842,4.78796406 Z" id="Fill-1" fill="#00447E" mask="url(#mask-2)"></path>
                    <polygon id="Fill-3" fill="#00447E" mask="url(#mask-2)" points="174.25 11.05 175.95 11.05 175.088038 8.5"></polygon>
                    <polygon id="Fill-4" fill="#00447E" mask="url(#mask-2)" points="153.85 10.2 155.55 10.2 154.691705 7.65"></polygon>
                    <path d="M228.494276,19.4661643 C226.966424,19.4661643 225.741323,18.2297632 225.741323,16.7122058 C225.741323,15.1877816 226.966424,13.9559584 228.494276,13.9559584 C230.007658,13.9559584 231.243422,15.1877816 231.243422,16.7122058 C231.243422,18.2297632 230.007658,19.4661643 228.494276,19.4661643 L228.494276,19.4661643 Z M221.105973,14.0715491 C220.180959,15.1488699 218.89607,15.6871488 217.253971,15.6871488 C215.602351,15.6871488 214.318604,15.161459 213.384832,14.1062645 C212.476955,13.0812075 212.031014,11.7116672 212.031014,9.97399153 C212.031014,8.11195088 212.53522,6.64665727 213.518119,5.58421449 C214.425996,4.61561765 215.651096,4.13341741 217.228075,4.13341741 C218.878552,4.13341741 220.180959,4.67474822 221.097214,5.74901711 C221.994808,6.78895212 222.438845,8.18138161 222.438845,9.92630558 C222.438845,11.6624553 222.00471,13.0449662 221.105973,14.0715491 L221.105973,14.0715491 Z M208.766999,15.4685565 L207.116522,13.202902 C206.624882,12.5208023 206.35488,12.1561002 206.305754,12.0939177 C205.921506,11.6273585 205.668641,11.3439133 205.331996,11.2397672 C205.331996,11.2397672 205.080654,11.120743 204.21124,11.120743 L204.21124,15.4685565 L203.601927,15.4685565 L201.138778,15.4685565 L201.138778,4.25778235 L205.282489,4.25778235 L206.172848,4.25778235 C207.301601,4.25778235 208.129505,4.31882035 208.65161,4.43708149 C209.541969,4.64041434 210.196219,5.06615443 210.631878,5.70857943 C211.007368,6.25296214 211.19397,6.87287938 211.19397,7.57062007 C211.19397,9.17210473 210.382822,10.202884 208.758621,10.6633395 L208.798988,10.6717322 C209.426581,11.0974723 209.683635,11.5350385 210.082354,12.041654 C210.352737,12.3876631 210.661963,12.8698634 211.17074,13.6282606 L212.42821,15.4685565 L208.766999,15.4685565 Z M200.010025,15.4685565 L190.634218,15.4685565 L190.634218,4.25053408 L199.788769,4.25053408 L199.788769,6.8293898 L193.707061,6.8293898 L193.707061,8.32062456 L199.363773,8.32062456 L199.363773,10.8834578 L193.698302,10.8834578 L193.707061,12.9076306 L200.010025,12.9076306 L200.010025,15.4685565 Z M189.805933,15.4685565 L181.085137,15.4685565 L181.085137,4.27800118 L184.166739,4.27800118 L184.166739,12.9175493 L189.805933,12.9175493 L189.805933,15.4685565 Z M177.486,15.5047978 L176.413609,13.1102005 L172.563511,13.1102005 L171.584802,15.5047978 L168.30365,15.5047978 L173.022781,4.31271655 L175.966906,4.31271655 L180.814755,15.5047978 L177.486,15.5047978 Z M164.700704,11.5407608 L163.793209,11.5407608 L163.793209,15.4685565 L160.702848,15.4685565 L160.702848,4.27533077 L162.394073,4.27533077 L164.576557,4.27533077 C166.121547,4.27533077 167.134911,4.33026498 167.608652,4.44318529 C168.436937,4.65185897 169.074431,5.07721756 169.539794,5.72879827 C169.956031,6.32811518 170.168529,7.0434043 170.168529,7.86589142 C170.168529,9.19499399 169.6727,10.1796133 168.671142,10.8228013 C168.224439,11.1077725 167.782306,11.2901235 167.338269,11.3725248 C166.767419,11.488497 165.87706,11.5407608 164.700704,11.5407608 L164.700704,11.5407608 Z M157.20082,15.4685565 L156.107103,13.0720518 L152.265002,13.0720518 L151.299622,15.4685565 L148.913399,15.4685565 L146.461294,15.4685565 L139.811021,15.4685565 L139.811021,4.27800118 L142.879294,4.27800118 L142.879294,12.9175493 L148.527627,12.9175493 L148.519249,14.2382592 L152.729223,4.27800118 L155.672967,4.27800118 L160.521197,15.4685565 L157.20082,15.4685565 Z M139.05928,6.8293898 L135.716436,6.8293898 L135.716436,15.4685565 L132.634834,15.4685565 L132.634834,6.8324417 L129.323597,6.8324417 L129.323597,4.27800118 L139.05928,4.27800118 L139.05928,6.8293898 Z M122.948277,15.4685565 L120.053658,15.4685565 L116.143771,9.56579987 L116.143771,15.4685565 L113.218306,15.4685565 L113.218306,4.27800118 L116.055802,4.27800118 L120.036141,10.2433217 L120.036141,4.27800118 L122.948277,4.27800118 L122.948277,15.4685565 Z M109.662964,15.4685565 L108.583337,13.1010448 L104.731715,13.1010448 L103.765954,15.4685565 L101.729705,15.4685565 L98.1088615,15.4586378 L96.3429956,13.0377179 C95.8109889,12.3109841 95.5276583,11.9111852 95.4697735,11.856251 C95.0002215,11.352306 94.8730274,11.306146 94.5131518,11.1928442 C94.2659991,11.1077725 93.5710012,11.1134948 93.5710012,11.1134948 L93.5710012,15.4586378 L90.4981584,15.4586378 L90.4981584,4.27800118 L95.6331456,4.27800118 C96.6971589,4.27800118 97.4805072,4.33026498 97.971766,4.44623719 C98.8042402,4.63431054 99.4588711,5.01350915 99.8663493,5.62198176 C100.220893,6.13737142 100.463476,6.7435551 100.490895,7.40276556 C100.551827,9.0965702 99.7597195,10.1651168 98.1351381,10.6717322 C98.7379774,10.9906558 99.7509606,12.5368248 100.250978,13.2868293 L100.963494,14.3176086 L105.197078,4.27800118 L108.149582,4.27800118 L112.99743,15.4685565 L109.662964,15.4685565 Z M89.1652857,13.9067465 C88.5685395,14.4305289 87.7661502,14.8619913 86.7356492,15.1893076 C85.7877863,15.4960236 84.8585836,15.6467111 83.9724137,15.6467111 C81.3219011,15.6467111 79.5107175,14.6971887 78.5278191,12.7943289 C78.0453192,11.8821922 77.8065446,10.8903246 77.8065446,9.81185933 C77.8065446,7.47906307 78.8458045,5.65669713 80.922801,4.66330359 C81.7103383,4.2898273 82.6802888,4.08992783 83.8353182,4.08992783 C86.8110517,4.08992783 88.6439421,5.32518446 89.090264,7.88343985 L86.0494102,8.38128108 C85.8064465,7.25207799 85.1678101,6.67832074 83.8265593,6.67832074 C82.9765674,6.67832074 82.1265754,6.90721326 81.6528344,7.49813744 C81.2419288,8.00780479 80.9719268,8.59567707 80.9719268,9.71610595 C80.9719268,10.8758281 81.2365973,11.611336 81.6440755,12.1286331 C82.2815695,12.9278495 83.083578,13.0640405 83.7035542,13.0751037 C84.6864526,13.0926521 85.4294339,12.7859361 86.0577882,12.3586701 L86.0577882,11.6403291 L83.4594481,11.6403291 L83.4594481,9.09275533 L89.1652857,9.0965702 L89.1652857,13.9067465 Z M71.8200421,15.4685565 L63.1080054,15.4685565 L63.1080054,4.35048382 L66.1762783,4.35048382 L66.1762783,12.911827 L71.8200421,12.911827 L71.8200421,15.4685565 Z M61.9080391,15.4685565 L52.5451797,15.4685565 L52.5451797,4.25053408 L61.6871631,4.25053408 L61.6871631,6.8293898 L55.6050746,6.8293898 L55.6050746,8.32062456 L61.2617863,8.32062456 L61.2617863,10.8834578 L55.5963157,10.8834578 L55.6138334,12.9076306 L61.9080391,12.9076306 L61.9080391,15.4685565 Z M48.2064887,0 C48.2064887,0 45.6614635,3.01871084 47.0282292,4.98451609 C47.9505771,6.5600596 46.6352222,8.13255121 46.6352222,8.13255121 C45.6614635,9.05041021 46.6352222,10.2982559 46.6352222,10.2982559 C47.9185882,11.4781969 46.9634897,12.9537906 46.9634897,12.9537906 C45.2623633,14.9199774 46.1123553,16.7236504 46.1123553,16.7236504 C47.2944229,18.756979 46.1123553,21.25 46.1123553,21.25 L232.05,21.25 L232.05,0 L48.2064887,0 Z" id="Fill-5" fill="#00447E" mask="url(#mask-2)"></path>
                    <polygon id="Fill-6" fill="#00447E" mask="url(#mask-2)" points="106.25 10.2 107.95 10.2 107.09663 7.65"></polygon>
                    <path d="M166.477709,6.86426273 C166.266919,6.8227882 165.836086,6.8 165.21337,6.8 L164.05,6.8 L164.05,9.35 L165.326408,9.35 C165.845741,9.35 166.191694,9.33268097 166.387198,9.29621984 C166.786252,9.22010724 167.069853,9.04737265 167.252887,8.77072386 C167.38443,8.5697319 167.45,8.33820375 167.45,8.07021448 C167.45,7.38975871 167.121746,6.98549598 166.477709,6.86426273" id="Fill-7" fill="#00447E" mask="url(#mask-2)"></path>
                    <path d="M207.535552,6.8175 C207.432614,6.80678571 207.097302,6.8 206.521123,6.8 L204.85,6.8 L204.85,8.5 L206.453857,8.5 C206.967186,8.5 207.271583,8.49285714 207.338509,8.48357143 C207.717646,8.44285714 207.978217,8.32642857 208.11207,8.13392857 C208.207874,8 208.25,7.83285714 208.25,7.63214286 C208.25,7.16321429 208.010492,6.89214286 207.535552,6.8175" id="Fill-8" fill="#00447E" mask="url(#mask-2)"></path>
                    <path d="M97.0305218,6.82147887 C96.9275941,6.80528169 96.5822446,6.8 95.9907489,6.8 L94.35,6.8 L94.35,8.5 L95.9396236,8.5 C96.455955,8.5 96.7542422,8.49330986 96.833808,8.48415493 C97.211661,8.44366197 97.4672874,8.32605634 97.60475,8.13133803 C97.6988747,7.99753521 97.75,7.83028169 97.75,7.63133803 C97.75,7.16478873 97.5096096,6.89471831 97.0305218,6.82147887" id="Fill-9" fill="#00447E" mask="url(#mask-2)"></path>
                    <path d="M229.5,15.7189219 C229.5,15.4828108 229.430618,15.3481573 229.287567,15.3088834 C229.253813,15.3 229.150945,15.3 228.976284,15.3 L228.65,15.3 L228.65,16.15 L228.960747,16.15 C229.110495,16.15 229.200772,16.15 229.225418,16.1462596 C229.341144,16.1233498 229.415616,16.0649065 229.456067,15.9690594 C229.483659,15.8979923 229.5,15.819912 229.5,15.7189219" id="Fill-10" fill="#00447E" mask="url(#mask-2)"></path>
                    <path d="M229.800038,17.7803208 L229.39804,17.2137262 C229.272213,17.0424134 229.196501,16.9533308 229.188569,16.9367405 C229.095551,16.8206085 229.003974,16.7466735 228.924296,16.721788 C228.861923,16.7044764 228.768544,16.6918534 228.638391,16.6918534 L228.522298,16.6918534 L228.522298,17.7803208 L227.943277,17.7803208 L227.943277,15.1778089 L229.14206,15.1778089 C229.39804,15.1778089 229.581193,15.1900713 229.699088,15.2163994 C229.891975,15.2629243 230.038353,15.3559742 230.139303,15.499877 C230.210689,15.6188943 230.257198,15.7530592 230.257198,15.9088637 C230.257198,16.3221784 230.00951,16.5645409 229.506201,16.6305414 C229.653661,16.7055584 229.77444,16.8000509 229.87539,16.9093304 C229.938484,16.9738883 230.021768,17.0968729 230.139303,17.2710709 L230.48686,17.7803208 L229.800038,17.7803208 Z M229.078966,14.45 C227.900734,14.45 226.95,15.4010565 226.95,16.5768033 C226.95,17.7485828 227.900734,18.7 229.078966,18.7 C230.247464,18.7 231.2,17.7485828 231.2,16.5768033 C231.2,15.4010565 230.247464,14.45 229.078966,14.45 L229.078966,14.45 Z" id="Fill-11" fill="#00447E" mask="url(#mask-2)"></path>
                    <path d="M217.61014,6.8 C216.729031,6.8 216.070579,7.14194935 215.627749,7.82462972 C215.237893,8.41390349 215.05,9.20136168 215.05,10.1861921 C215.05,11.1576206 215.252792,11.9462972 215.637268,12.5518156 C216.089617,13.2535834 216.754277,13.6 217.61014,13.6 C218.470555,13.6 219.130662,13.2438366 219.573493,12.5384138 C219.95383,11.9341137 220.15,11.141376 220.15,10.1662924 C220.15,9.17780698 219.95383,8.39197324 219.573493,7.81082179 C219.144733,7.13748208 218.480074,6.8 217.61014,6.8" id="Fill-12" fill="#00447E" mask="url(#mask-2)"></path>
                    <polygon id="Fill-13" fill="#FFFFFF" mask="url(#mask-2)" points="25.5 20.4 30.6 20.4 30.6 0 25.5 0"></polygon>
                    <path d="M24.65,20.4 L23.305497,20.4 C21.4715529,20.4 20.4,19.3513965 20.4,17.5617292 L20.4,2.84169636 C20.4,1.08057541 21.526065,0 23.305497,0 L24.65,0 L24.65,20.4 Z" id="Fill-14" fill="#FFFFFF" mask="url(#mask-2)"></path>
                    <path d="M20.4,12.6406217 C20.4,12.6406217 17.1035276,10.4823897 13.6161441,12.6406217 C10.1291327,14.7992229 4.17851246,12.6406217 4.17851246,12.6406217 C3.20683832,12.2691621 2.55,11.7437277 2.55,11.7437277 C3.54437507,10.7615383 2.55,9.50463124 2.55,9.50463124 C2.55,9.50463124 3.20683832,8.98030457 4.17851246,8.60921421 C4.17851246,8.60921421 10.1291327,6.45098224 13.6161441,8.60921421 C17.1035276,10.7670769 20.4,8.60921421 20.4,8.60921421 L20.4,12.6406217 Z" id="Fill-15" fill="#FFFFFF" mask="url(#mask-2)"></path>
                    <polygon id="Fill-16" fill="#FFFFFF" mask="url(#mask-2)" points="55.7469454 10.7833543 61.405015 10.7833543 61.405015 8.25899276 55.7556923 8.25899276 55.7556923 6.7901435 61.8294273 6.7901435 61.8294273 4.25 52.7 4.25 52.7 15.3 62.05 15.3 62.05 12.7771415 55.7644391 12.7771415"></polygon>
                    <polygon id="Fill-17" fill="#FFFFFF" mask="url(#mask-2)" points="66.7435962 4.25 63.75 4.25 63.75 15.3 72.25 15.3 72.25 12.7586327 66.7435962 12.7586327"></polygon>
                    <path d="M83.6992524,12.0246352 L86.2269672,12.0246352 L86.2269672,12.7643098 C85.6156922,13.2042649 84.8929058,13.5200898 83.9367234,13.5020202 C83.3335988,13.4906285 82.5533895,13.3503928 81.9332233,12.5270483 C81.5368207,11.9947811 81.2793442,11.2374299 81.2793442,10.043266 C81.2793442,8.88956229 81.5420072,8.2842312 81.9417441,7.75942761 C82.4026084,7.15095398 83.2294968,6.91526375 84.0563852,6.91526375 C85.3611795,6.91526375 85.9824572,7.50606061 86.2188168,8.6687991 L89.1770175,8.15578002 C88.742827,5.52154882 86.9597563,4.25 84.064906,4.25 C82.9412713,4.25 81.997685,4.45583614 81.2315536,4.84040404 C79.2110118,5.86290685 78.2,7.73978676 78.2,10.1418631 C78.2,11.2523569 78.4322845,12.2736813 78.9016696,13.212514 C79.8578519,15.1722783 81.6198059,16.15 84.1982751,16.15 C85.0603581,16.15 85.9643042,15.9948373 86.8867737,15.6790123 C87.8892648,15.3415825 88.669474,14.8976992 89.25,14.3583614 L89.25,9.40533109 L83.6992524,9.4010101 L83.6992524,12.0246352 Z" id="Fill-18" fill="#FFFFFF" mask="url(#mask-2)"></path>
                    <path d="M105.909143,10.4406218 L106.848788,8.07308754 L107.795915,10.4406218 L105.909143,10.4406218 Z M97.5428556,8.19626713 C97.3909861,8.40495671 97.1085687,8.53077316 96.6911147,8.57371651 C96.60321,8.5835106 96.2736607,8.59066783 95.7032151,8.59066783 L93.9469906,8.59066783 L93.9469906,6.77235631 L95.7596985,6.77235631 C96.4131861,6.77235631 96.7947301,6.77763005 96.9084452,6.79495807 C97.4377439,6.87331083 97.7033285,7.16261335 97.7033285,7.66135883 C97.7033285,7.87456876 97.646845,8.05312266 97.5428556,8.19626713 L97.5428556,8.19626713 Z M105.388073,4.25 L101.229992,14.1635082 L100.529746,13.1456757 C100.038602,12.4050914 99.0435952,10.8783425 98.4514539,10.5634247 C100.04758,10.0631724 100.825256,9.00804698 100.765406,7.33551681 C100.738473,6.68458615 100.500195,6.08563953 100.152317,5.57709995 C99.751696,4.97626986 99.1090562,4.60183405 98.290981,4.41612293 C97.8084401,4.30160735 97.0389931,4.25 95.9942359,4.25 L90.95,4.25 L90.95,15.2902059 L93.9683121,15.2902059 L93.9683121,10.9996386 C93.9683121,10.9996386 94.6509766,10.9939882 94.8937433,11.0779914 C95.2472326,11.1898701 95.3721696,11.2354503 95.833763,11.7330657 C95.8906205,11.7873099 96.1685491,12.1820873 96.6911147,12.8996932 L98.4260177,15.2902059 L101.982232,15.3 L103.982719,15.3 L104.930969,12.9622247 L108.714239,12.9622247 L109.774707,15.3 L113.05,15.3 L108.288556,4.25 L105.388073,4.25 Z" id="Fill-19" fill="#FFFFFF" mask="url(#mask-2)"></path>
                    <polygon id="Fill-20" fill="#FFFFFF" mask="url(#mask-2)" points="120.451587 10.1403951 116.626687 4.25 113.9 4.25 113.9 15.3 116.711221 15.3 116.711221 9.47138304 120.468421 15.3 123.25 15.3 123.25 4.25 120.451587 4.25"></polygon>
                    <polygon id="Fill-21" fill="#FFFFFF" mask="url(#mask-2)" points="130.05 6.77197961 133.230061 6.77197961 133.230061 15.3 136.189583 15.3 136.189583 6.76896605 139.4 6.76896605 139.4 4.25 130.05 4.25"></polygon>
                    <path d="M153.498634,10.4406218 L154.431192,8.07308754 L155.382132,10.4406218 L153.498634,10.4406218 Z M152.97496,4.25 L148.827963,14.0851555 L148.835841,12.781034 L143.272,12.781034 L143.272,4.25 L140.25,4.25 L140.25,15.3 L146.800793,15.3 L149.216217,15.3 L151.566745,15.3 L152.517684,12.9335958 L156.302311,12.9335958 L157.379668,15.3 L160.65,15.3 L155.87467,4.25 L152.97496,4.25 Z" id="Fill-22" fill="#FFFFFF" mask="url(#mask-2)"></path>
                    <path d="M167.547499,8.40646002 C167.376337,8.63505214 167.111129,8.777781 166.738332,8.84067207 C166.555132,8.87079954 166.231615,8.88511008 165.745965,8.88511008 L164.55234,8.88511008 L164.55234,6.77844728 L165.640634,6.77844728 C166.222963,6.77844728 166.625478,6.79727694 166.822597,6.83117034 C167.424864,6.93134415 167.731829,7.26575898 167.731829,7.82763615 C167.731829,8.04944959 167.670511,8.24075898 167.547499,8.40646002 M170.85,7.79449594 C170.85,6.98293743 170.640467,6.27682503 170.2293,5.68482039 C169.76923,5.04159907 169.139501,4.62169757 168.321682,4.41570104 C167.853712,4.30422943 166.852315,4.25 165.326522,4.25 L163.170247,4.25 L161.5,4.25 L161.5,15.3 L164.55234,15.3 L164.55234,11.422219 L165.449157,11.422219 C166.611183,11.422219 167.490696,11.3706257 168.054593,11.2561414 C168.493221,11.1751738 168.929968,10.9947856 169.371229,10.7134705 C170.360587,10.0785342 170.85,9.10654693 170.85,7.79449594" id="Fill-23" fill="#FFFFFF" mask="url(#mask-2)"></path>
                    <path d="M173.651181,10.4426254 L174.616396,8.0753332 L175.609167,10.4426254 L173.651181,10.4426254 Z M173.108999,4.25 L168.3,15.3 L171.643518,15.3 L172.640946,12.9357211 L176.565068,12.9357211 L177.657581,15.3 L181.05,15.3 L176.109821,4.25 L173.108999,4.25 Z" id="Fill-24" fill="#FFFFFF" mask="url(#mask-2)"></path>
                    <polygon id="Fill-25" fill="#FFFFFF" mask="url(#mask-2)" points="184.90345 4.25 181.9 4.25 181.9 15.3 190.4 15.3 190.4 12.7806573 184.90345 12.7806573"></polygon>
                    <polygon id="Fill-26" fill="#FFFFFF" mask="url(#mask-2)" points="194.30565 10.7833543 199.955526 10.7833543 199.955526 8.25899276 194.314385 8.25899276 194.314385 6.7901435 200.379352 6.7901435 200.379352 4.25 191.25 4.25 191.25 15.3 200.6 15.3 200.6 12.7771415 194.314385 12.7771415"></polygon>
                    <path d="M208.036762,8.20029604 C207.889528,8.40296209 207.604006,8.52553934 207.188023,8.56840377 C207.11422,8.57855587 206.780614,8.58569995 206.217398,8.58569995 L204.457672,8.58569995 L204.457672,6.79629781 L206.290828,6.79629781 C206.923375,6.79629781 207.291273,6.80306588 207.404215,6.81434599 C207.924938,6.89293079 208.187723,7.17831768 208.187723,7.67238669 C208.187723,7.88332483 208.141503,8.05929461 208.036762,8.20029604 M210.203896,11.9219818 C209.813633,11.4226487 209.562031,10.9917483 208.947748,10.5721281 L208.908237,10.56348 C210.498364,10.1096434 211.291936,9.09368109 211.291936,7.5155931 C211.291936,6.82788213 211.109292,6.21687594 210.741766,5.6803185 C210.315347,5.04675208 209.675345,4.62713182 208.803496,4.4270978 C208.292837,4.31016061 207.482118,4.25 206.377305,4.25 L205.505829,4.25 L201.45,4.25 L201.45,15.3 L203.860909,15.3 L204.457672,15.3 L204.457672,11.0143086 C205.308275,11.0143086 205.554286,11.1316218 205.554286,11.1316218 C205.883792,11.2342708 206.131294,11.5140176 206.507765,11.9734943 C206.555476,12.0347829 206.819752,12.3942425 207.300965,13.0665374 L208.916438,15.3 L212.5,15.3 L211.269199,13.4861576 C210.771213,12.738286 210.468544,12.2633932 210.203896,11.9219818" id="Fill-27" fill="#FFFFFF" mask="url(#mask-2)"></path>
                    <path d="M219.389572,12.4640098 C218.990231,13.1465132 218.394951,13.4911048 217.619034,13.4911048 C216.847223,13.4911048 216.247838,13.1559433 215.839912,12.4769762 C215.493194,11.8911312 215.310318,11.128079 215.310318,10.1882124 C215.310318,9.23537938 215.479759,8.47350591 215.831328,7.9033778 C216.23067,7.2428779 216.824457,6.91203857 217.619034,6.91203857 C218.403535,6.91203857 219.00292,7.23855577 219.389572,7.89001849 C219.732558,8.45228819 219.909462,9.2129829 219.909462,10.1689593 C219.909462,11.1123621 219.732558,11.8793436 219.389572,12.4640098 M217.593655,4.25 C216.048167,4.25 214.847157,4.74665192 213.957409,5.74427788 C212.994138,6.83895529 212.5,8.34777125 212.5,10.2656178 C212.5,12.0553721 212.937409,13.4659579 213.827157,14.5217361 C214.742283,15.6085551 216.000022,16.15 217.619034,16.15 C219.227969,16.15 220.487201,15.5955887 221.393743,14.4859803 C222.274907,13.4286304 222.7,12.0046853 222.7,10.2165027 C222.7,8.41928284 222.26483,6.98512184 221.385532,5.91401968 C220.487201,4.80794757 219.210801,4.25 217.593655,4.25" id="Fill-28" fill="#FFFFFF" mask="url(#mask-2)"></path>
                    <path d="M228.651765,19.0796871 C227.498194,19.0796871 226.567359,18.1482415 226.567359,17.0010593 C226.567359,15.8503462 227.498194,14.9189006 228.651765,14.9189006 C229.795806,14.9189006 230.728405,15.8503462 230.728405,17.0010593 C230.728405,18.1482415 229.795806,19.0796871 228.651765,19.0796871 M228.651765,14.45 C227.235569,14.45 226.1,15.5901205 226.1,17.0010593 C226.1,18.4056425 227.235569,19.55 228.651765,19.55 C230.054547,19.55 231.2,18.4056425 231.2,17.0010593 C231.2,15.5901205 230.054547,14.45 228.651765,14.45" id="Fill-29" fill="#FFFFFF" mask="url(#mask-2)"></path>
                    <path d="M229.156675,16.3728659 C229.123427,16.3756929 229.001637,16.3756929 228.799979,16.3756929 L228.380761,16.3756929 L228.380761,15.7328922 L228.820578,15.7328922 C229.056569,15.7328922 229.195344,15.7328922 229.240519,15.7399598 C229.433865,15.7696438 229.527105,15.8714177 229.527105,16.0498753 C229.527105,16.1262057 229.50506,16.1852203 229.467836,16.2389343 C229.413265,16.3113775 229.313159,16.3555502 229.156675,16.3728659 M229.737075,16.996584 C229.635523,16.8895094 229.514456,16.7965701 229.366645,16.7230668 C229.871514,16.6587514 230.11943,16.4212791 230.11943,16.0159507 C230.11943,15.8636433 230.07281,15.731832 230.001616,15.6152162 C229.900425,15.4745704 229.753338,15.3830446 229.559991,15.3374584 C229.441815,15.312015 229.258227,15.3 229.001637,15.3 L227.8,15.3 L227.8,17.85 L228.380761,17.85 L228.380761,16.783495 L228.49713,16.783495 C228.627232,16.783495 228.720833,16.79551 228.783716,16.8128257 C228.863584,16.8368556 228.955017,16.9092988 229.048257,17.023441 C229.056569,17.0396965 229.132462,17.1269817 229.258227,17.2944845 L229.661182,17.85 L230.35,17.85 L230.001616,17.3510255 C229.883801,17.1803423 229.799957,17.0594859 229.737075,16.996584" id="Fill-30" fill="#FFFFFF" mask="url(#mask-2)"></path>
                </g>
            </g>
        </g>
    </g>
</svg>