<?xml version="1.0" encoding="UTF-8"?>
<svg width="279px" height="40px" viewBox="0 0 279 40" version="1.1" xmlns="http://www.w3.org/2000/svg" xmlns:xlink="http://www.w3.org/1999/xlink">
    <!-- Generator: Sketch 63.1 (92452) - https://sketch.com -->
    <title>Group 5</title>
    <desc>Created with Sketch.</desc>
    <defs>
        <polygon id="path-1" points="0 0 278.46 0 278.46 25.5 0 25.5"></polygon>
    </defs>
    <g id="Symbols" stroke="none" stroke-width="1" fill="none" fill-rule="evenodd">
        <g id="fll-copy" transform="translate(-132.000000, -43.000000)">
            <g id="Group-5" transform="translate(132.000000, 43.000000)">
                <text id="El-Portal-Ferretero" font-family="HelveticaNeue-Italic, Helvetica Neue" font-size="12.24" font-style="italic" font-weight="normal" fill="#000000">
                    <tspan x="100.98" y="38.52">El Portal Ferretero #1 en México</tspan>
                </text>
                <g id="Group-31">
                    <mask id="mask-2" fill="white">
                        <use xlink:href="#path-1"></use>
                    </mask>
                    <g id="Clip-2"></g>
                    <path d="M30.4002521,25.0023966 L36.9290235,25.0023966 L36.9290235,0.466932357 L30.4002521,0.466932357 L30.4002521,25.0023966 Z M29.8933057,25.0023966 L28.3077207,25.0023966 C26.1449331,25.0023966 24.8816999,23.7416792 24.8816999,21.5887548 L24.8816999,3.88515187 C24.8816999,1.76701853 26.2092198,0.467390134 28.3077207,0.467390134 L29.8933057,0.467390134 L29.8933057,25.0023966 Z M24.4004682,15.4504255 C24.4004682,15.4504255 20.3329582,12.7751777 16.0298834,15.4504255 C11.7272678,18.1265888 4.3848107,15.4504255 4.3848107,15.4504255 C3.18540494,14.9903598 2.37539279,14.3389433 2.37539279,14.3389433 C3.60234998,13.1207992 2.37539279,11.5625269 2.37539279,11.5625269 C2.37539279,11.5625269 3.18540494,10.9124838 4.3848107,10.4524181 C4.3848107,10.4524181 11.7272678,7.7771704 16.0298834,10.4524181 C20.3329582,13.1276659 24.4004682,10.4524181 24.4004682,10.4524181 L24.4004682,15.4504255 Z M49.7399811,5.74555687 C48.5548102,3.22961547 51,0 51,0 L36.9290235,0 L27.9224598,0 C25.9690632,0 24.3848557,1.58253447 24.3848557,3.53220595 L24.4004682,10.0193613 C24.4004682,10.0193613 20.3329582,12.698729 16.0298834,10.0193613 C11.7272678,7.34365575 4.3848107,10.0193613 4.3848107,10.0193613 C1.72196462,11.0063281 0.12214469,12.7733466 0.12214469,12.7733466 L0,12.9523374 L0.12214469,13.129497 C0.12214469,13.129497 1.72196462,14.8978888 4.3848107,15.8816512 C4.3848107,15.8816512 11.7272678,18.5555256 16.0298834,15.8816512 C20.3329582,13.2059457 24.4004682,15.8816512 24.4004682,15.8816512 L24.3848557,21.9659629 C24.3848557,23.9151766 25.9690632,25.4926756 27.9224598,25.4926756 L36.9290235,25.5 L49.344618,25.5 C49.344618,25.5 50.5573403,22.4942374 49.4998244,21.0137872 C48.1594472,19.1272889 49.4998244,16.4497523 49.4998244,16.4497523 C51.3572503,14.3632055 49.6596227,12.7509156 49.6596227,12.7509156 C48.6351686,11.4915715 49.9750867,9.75934403 49.9750867,9.75934403 C51.6346014,8.42309349 49.7399811,5.74555687 49.7399811,5.74555687 L49.7399811,5.74555687 Z" id="Fill-1" fill="#00447E" mask="url(#mask-2)"></path>
                    <polygon id="Fill-3" fill="#00447E" mask="url(#mask-2)" points="209.1 13.26 211.14 13.26 210.105645 10.2"></polygon>
                    <polygon id="Fill-4" fill="#00447E" mask="url(#mask-2)" points="184.62 12.24 186.66 12.24 185.630046 9.18"></polygon>
                    <path d="M274.193132,23.3593972 C272.359708,23.3593972 270.889588,21.8757159 270.889588,20.054647 C270.889588,18.225338 272.359708,16.7471501 274.193132,16.7471501 C276.00919,16.7471501 277.492106,18.225338 277.492106,20.054647 C277.492106,21.8757159 276.00919,23.3593972 274.193132,23.3593972 L274.193132,23.3593972 Z M265.327167,16.8858589 C264.217151,18.1786439 262.675284,18.8245786 260.704765,18.8245786 C258.722821,18.8245786 257.182325,18.1937508 256.061798,16.9275174 C254.972346,15.697449 254.437217,14.0540007 254.437217,11.9687898 C254.437217,9.73434106 255.042265,7.97598873 256.221743,6.70105739 C257.311195,5.53874118 258.781315,4.96010089 260.67369,4.96010089 C262.654262,4.96010089 264.217151,5.60969786 265.316657,6.89882053 C266.39377,8.14674255 266.926615,9.81765794 266.926615,11.9115667 C266.926615,13.9949464 266.405652,15.6539594 265.327167,16.8858589 L265.327167,16.8858589 Z M250.520399,18.5622677 L248.539826,15.8434824 C247.949859,15.0249627 247.625856,14.5873203 247.566905,14.5127013 C247.105807,13.9528302 246.802369,13.6126959 246.398395,13.4877206 C246.398395,13.4877206 246.096785,13.3448917 245.053488,13.3448917 L245.053488,18.5622677 L244.322312,18.5622677 L241.366534,18.5622677 L241.366534,5.10933881 L246.338987,5.10933881 L247.407417,5.10933881 C248.761921,5.10933881 249.755406,5.18258442 250.381932,5.32449778 C251.450363,5.56849721 252.235463,6.07938531 252.758254,6.85029532 C253.208841,7.50355457 253.432764,8.24745525 253.432764,9.08474409 C253.432764,11.0065257 252.459386,12.2434609 250.510345,12.7960074 L250.558786,12.8060787 C251.311897,13.3169668 251.620361,13.8420462 252.098825,14.4499847 C252.423284,14.8651958 252.794356,15.4438361 253.404888,16.3539127 L254.913852,18.5622677 L250.520399,18.5622677 Z M240.01203,18.5622677 L228.761062,18.5622677 L228.761062,5.1006409 L239.746522,5.1006409 L239.746522,8.19526776 L232.448473,8.19526776 L232.448473,9.98474947 L239.236527,9.98474947 L239.236527,13.0601494 L232.437962,13.0601494 L232.448473,15.4891568 L240.01203,15.4891568 L240.01203,18.5622677 Z M227.767119,18.5622677 L217.302165,18.5622677 L217.302165,5.13360142 L221.000087,5.13360142 L221.000087,15.5010592 L227.767119,15.5010592 L227.767119,18.5622677 Z M212.9832,18.6057573 L211.696331,15.7322406 L207.076213,15.7322406 L205.901762,18.6057573 L201.96438,18.6057573 L207.627337,5.17525986 L211.160287,5.17525986 L216.977705,18.6057573 L212.9832,18.6057573 Z M197.640845,13.848913 L196.55185,13.848913 L196.55185,18.5622677 L192.843418,18.5622677 L192.843418,5.13039693 L194.872888,5.13039693 L197.491868,5.13039693 C199.345856,5.13039693 200.561893,5.19631797 201.130382,5.33182234 C202.124324,5.58223076 202.889317,6.09266108 203.447753,6.87455792 C203.947237,7.59373822 204.202235,8.45208517 204.202235,9.43906971 C204.202235,11.0339928 203.607241,12.215536 202.40537,12.9873615 C201.869327,13.329327 201.338767,13.5481482 200.805923,13.6470298 C200.120903,13.7861964 199.052472,13.848913 197.640845,13.848913 L197.640845,13.848913 Z M188.640984,18.5622677 L187.328524,15.6864621 L182.718003,15.6864621 L181.559546,18.5622677 L178.696078,18.5622677 L175.753552,18.5622677 L167.773225,18.5622677 L167.773225,5.13360142 L171.455152,5.13360142 L171.455152,15.5010592 L178.233153,15.5010592 L178.223099,17.085911 L183.275067,5.13360142 L186.807561,5.13360142 L192.625436,18.5622677 L188.640984,18.5622677 Z M166.871137,8.19526776 L162.859723,8.19526776 L162.859723,18.5622677 L159.161801,18.5622677 L159.161801,8.19893004 L155.188317,8.19893004 L155.188317,5.13360142 L166.871137,5.13360142 L166.871137,8.19526776 Z M147.537932,18.5622677 L144.06439,18.5622677 L139.372526,11.4789598 L139.372526,18.5622677 L135.861968,18.5622677 L135.861968,5.13360142 L139.266962,5.13360142 L144.043369,12.2919861 L144.043369,5.13360142 L147.537932,5.13360142 L147.537932,18.5622677 Z M131.595556,18.5622677 L130.300004,15.7212538 L125.678059,15.7212538 L124.519145,18.5622677 L122.075646,18.5622677 L117.730634,18.5503653 L115.611595,15.6452615 C114.973187,14.773181 114.63319,14.2934223 114.563728,14.2275012 C114.000266,13.6227672 113.847633,13.5673752 113.415782,13.431413 C113.119199,13.329327 112.285201,13.3361937 112.285201,13.3361937 L112.285201,18.5503653 L108.59779,18.5503653 L108.59779,5.13360142 L114.759775,5.13360142 C116.036591,5.13360142 116.976609,5.19631797 117.566119,5.33548462 C118.565088,5.56117265 119.350645,6.01621098 119.839619,6.74637811 C120.265072,7.3648457 120.556172,8.09226613 120.589074,8.88331867 C120.662192,10.9158842 119.711663,12.1981401 117.762166,12.8060787 C118.485573,13.188787 119.701153,15.0441897 120.301174,15.9441951 L121.156193,17.1811303 L126.236494,5.13360142 L129.779498,5.13360142 L135.596916,18.5622677 L131.595556,18.5622677 Z M106.998343,16.6880958 C106.282247,17.3166347 105.31938,17.8343895 104.082779,18.2271691 C102.945344,18.5952283 101.8303,18.7760534 100.766896,18.7760534 C97.5862814,18.7760534 95.4128611,17.6366264 94.233383,15.3531946 C93.6543831,14.2586306 93.3678535,13.0683895 93.3678535,11.7742312 C93.3678535,8.97487568 94.6149654,6.78803655 97.1073612,5.59596431 C98.052406,5.14779276 99.2163466,4.9079134 100.602382,4.9079134 C104.173262,4.9079134 106.37273,6.39022135 106.908317,9.46012782 L103.259292,10.0575373 C102.967736,8.70249358 102.201372,8.01398488 100.591871,8.01398488 C99.5718808,8.01398488 98.5518905,8.28865591 97.9834013,8.99776493 C97.4903145,9.60936574 97.1663122,10.3148125 97.1663122,11.6593271 C97.1663122,13.0509937 97.4839167,13.9336032 97.9728906,14.5543597 C98.7378834,15.5134194 99.7002936,15.6768486 100.444265,15.6901244 C101.623743,15.7111825 102.515321,15.3431234 103.269346,14.8304041 L103.269346,13.9683949 L100.151338,13.9683949 L100.151338,10.9113064 L106.998343,10.9158842 L106.998343,16.6880958 Z M86.1840505,18.5622677 L75.7296064,18.5622677 L75.7296064,5.22058058 L79.411534,5.22058058 L79.411534,15.4941924 L86.1840505,15.4941924 L86.1840505,18.5622677 Z M74.289647,18.5622677 L63.0542156,18.5622677 L63.0542156,5.1006409 L74.0245957,5.1006409 L74.0245957,8.19526776 L66.7260895,8.19526776 L66.7260895,9.98474947 L73.5141435,9.98474947 L73.5141435,13.0601494 L66.7155788,13.0601494 L66.7366001,15.4891568 L74.289647,15.4891568 L74.289647,18.5622677 Z M57.8477864,0 C57.8477864,0 54.7937562,3.62245301 56.433875,5.98141931 C57.5406925,7.87207152 55.9622666,9.75906145 55.9622666,9.75906145 C54.7937562,10.8604923 55.9622666,12.3579071 55.9622666,12.3579071 C57.5023058,13.7738362 56.3561876,15.5445488 56.3561876,15.5445488 C54.314836,17.9039729 55.3348263,20.0683805 55.3348263,20.0683805 C56.7533075,22.5083748 55.3348263,25.5 55.3348263,25.5 L278.46,25.5 L278.46,0 L57.8477864,0 Z" id="Fill-5" fill="#00447E" mask="url(#mask-2)"></path>
                    <polygon id="Fill-6" fill="#00447E" mask="url(#mask-2)" points="127.5 12.24 129.54 12.24 128.515956 9.18"></polygon>
                    <path d="M199.773251,8.23711528 C199.520303,8.18734584 199.003303,8.16 198.256044,8.16 L196.86,8.16 L196.86,11.22 L198.39169,11.22 C199.014889,11.22 199.430033,11.1992172 199.664638,11.1554638 C200.143502,11.0641287 200.483824,10.8568472 200.703464,10.5248686 C200.861316,10.2836783 200.94,10.0058445 200.94,9.68425737 C200.94,8.86771046 200.546096,8.38259517 199.773251,8.23711528" id="Fill-7" fill="#00447E" mask="url(#mask-2)"></path>
                    <path d="M249.042662,8.181 C248.919137,8.16814286 248.516763,8.16 247.825348,8.16 L245.82,8.16 L245.82,10.2 L247.744628,10.2 C248.360624,10.2 248.725899,10.1914286 248.806211,10.1802857 C249.261175,10.1314286 249.573861,9.99171429 249.734484,9.76071429 C249.849448,9.6 249.9,9.39942857 249.9,9.15857143 C249.9,8.59585714 249.61259,8.27057143 249.042662,8.181" id="Fill-8" fill="#00447E" mask="url(#mask-2)"></path>
                    <path d="M116.436626,8.18577465 C116.313113,8.16633803 115.898693,8.16 115.188899,8.16 L113.22,8.16 L113.22,10.2 L115.127548,10.2 C115.747146,10.2 116.105091,10.1919718 116.20057,10.1809859 C116.653993,10.1323944 116.960745,9.99126761 117.1257,9.75760563 C117.23865,9.59704225 117.3,9.39633803 117.3,9.15760563 C117.3,8.59774648 117.011532,8.27366197 116.436626,8.18577465" id="Fill-9" fill="#00447E" mask="url(#mask-2)"></path>
                    <path d="M275.4,18.8627063 C275.4,18.5793729 275.316741,18.4177888 275.14508,18.3706601 C275.104576,18.36 274.981135,18.36 274.771541,18.36 L274.38,18.36 L274.38,19.38 L274.752896,19.38 C274.932594,19.38 275.040927,19.38 275.070501,19.3755116 C275.209373,19.3480198 275.298739,19.2778878 275.34728,19.1628713 C275.380391,19.0775908 275.4,18.9838944 275.4,18.8627063" id="Fill-10" fill="#00447E" mask="url(#mask-2)"></path>
                    <path d="M275.760046,21.3363849 L275.277648,20.6564715 C275.126656,20.4508961 275.035801,20.3439969 275.026283,20.3240886 C274.914661,20.1847301 274.804769,20.0960081 274.709155,20.0661456 C274.634308,20.0453717 274.522253,20.030224 274.366069,20.030224 L274.226758,20.030224 L274.226758,21.3363849 L273.531932,21.3363849 L273.531932,18.2133707 L274.970472,18.2133707 C275.277648,18.2133707 275.497431,18.2280855 275.638906,18.2596792 C275.87037,18.3155092 276.046023,18.427169 276.167163,18.5998523 C276.252827,18.7426731 276.308638,18.9036711 276.308638,19.0906365 C276.308638,19.5866141 276.011412,19.8774491 275.407441,19.9566497 C275.584393,20.0466701 275.729328,20.1600611 275.850468,20.2911965 C275.926181,20.368666 276.026121,20.5162475 276.167163,20.7252851 L276.584231,21.3363849 L275.760046,21.3363849 Z M274.894759,17.34 C273.480881,17.34 272.34,18.4812678 272.34,19.892164 C272.34,21.2982994 273.480881,22.44 274.894759,22.44 C276.296956,22.44 277.44,21.2982994 277.44,19.892164 C277.44,18.4812678 276.296956,17.34 274.894759,17.34 L274.894759,17.34 Z" id="Fill-11" fill="#00447E" mask="url(#mask-2)"></path>
                    <path d="M261.132167,8.16 C260.074837,8.16 259.284695,8.57033923 258.753299,9.38955566 C258.285471,10.0966842 258.06,11.041634 258.06,12.2234305 C258.06,13.3891448 258.30335,14.3355566 258.764721,15.0621787 C259.30754,15.9043 260.105132,16.32 261.132167,16.32 C262.164666,16.32 262.956795,15.8926039 263.488191,15.0460965 C263.944596,14.3209365 264.18,13.3696512 264.18,12.1995509 C264.18,11.0133684 263.944596,10.0703679 263.488191,9.37298614 C262.97368,8.5649785 262.176089,8.16 261.132167,8.16" id="Fill-12" fill="#00447E" mask="url(#mask-2)"></path>
                    <polygon id="Fill-13" fill="#FFFFFF" mask="url(#mask-2)" points="30.6 24.48 36.72 24.48 36.72 0 30.6 0"></polygon>
                    <path d="M29.58,24.48 L27.9665964,24.48 C25.7658635,24.48 24.48,23.2216758 24.48,21.074075 L24.48,3.41003564 C24.48,1.29669049 25.8312781,0 27.9665964,0 L29.58,0 L29.58,24.48 Z" id="Fill-14" fill="#FFFFFF" mask="url(#mask-2)"></path>
                    <path d="M24.48,15.168746 C24.48,15.168746 20.5242331,12.5788677 16.3393729,15.168746 C12.1549592,17.7590675 5.01421495,15.168746 5.01421495,15.168746 C3.84820598,14.7229945 3.06,14.0924732 3.06,14.0924732 C4.25325008,12.9138459 3.06,11.4055575 3.06,11.4055575 C3.06,11.4055575 3.84820598,10.7763655 5.01421495,10.3310571 C5.01421495,10.3310571 12.1549592,7.74117869 16.3393729,10.3310571 C20.5242331,12.9204923 24.48,10.3310571 24.48,10.3310571 L24.48,15.168746 Z" id="Fill-15" fill="#FFFFFF" mask="url(#mask-2)"></path>
                    <polygon id="Fill-16" fill="#FFFFFF" mask="url(#mask-2)" points="66.8963345 12.9400252 73.6860181 12.9400252 73.6860181 9.91079131 66.9068307 9.91079131 66.9068307 8.1481722 74.1953128 8.1481722 74.1953128 5.1 63.24 5.1 63.24 18.36 74.46 18.36 74.46 15.3325698 66.9173269 15.3325698"></polygon>
                    <polygon id="Fill-17" fill="#FFFFFF" mask="url(#mask-2)" points="80.0923154 5.1 76.5 5.1 76.5 18.36 86.7 18.36 86.7 15.3103592 80.0923154 15.3103592"></polygon>
                    <path d="M100.439103,14.4295623 L103.472361,14.4295623 L103.472361,15.3171717 C102.738831,15.8451178 101.871487,16.2241077 100.724068,16.2024242 C100.000319,16.1887542 99.0640675,16.0204714 98.3198679,15.0324579 C97.8441848,14.3937374 97.5352131,13.4849158 97.5352131,12.0519192 C97.5352131,10.6674747 97.8504087,9.94107744 98.3300929,9.31131313 C98.88313,8.58114478 99.8753961,8.2983165 100.867662,8.2983165 C102.433415,8.2983165 103.178949,9.00727273 103.46258,10.4025589 L107.012421,9.78693603 C106.491392,6.62585859 104.351708,5.1 100.877887,5.1 C99.5295256,5.1 98.397222,5.34700337 97.4778644,5.80848485 C95.0532142,7.03548822 93.84,9.28774411 93.84,12.1702357 C93.84,13.5028283 94.1187414,14.7284175 94.6820036,15.8550168 C95.8294223,18.206734 97.9437671,19.38 101.03793,19.38 C102.07243,19.38 103.157165,19.1938047 104.264128,18.8148148 C105.467118,18.409899 106.403369,17.8772391 107.1,17.2300337 L107.1,11.2863973 L100.439103,11.2812121 L100.439103,14.4295623 Z" id="Fill-18" fill="#FFFFFF" mask="url(#mask-2)"></path>
                    <path d="M127.090971,12.5287462 L128.218546,9.68770505 L129.355098,12.5287462 L127.090971,12.5287462 Z M117.051427,9.83552056 C116.869183,10.085948 116.530282,10.2369278 116.029338,10.2884598 C115.923852,10.3002127 115.528393,10.3088014 114.843858,10.3088014 L112.736389,10.3088014 L112.736389,8.12682757 L114.911638,8.12682757 C115.695823,8.12682757 116.153676,8.13315606 116.290134,8.15394968 C116.925293,8.247973 117.243994,8.59513602 117.243994,9.1936306 C117.243994,9.44948251 117.176214,9.66374719 117.051427,9.83552056 L117.051427,9.83552056 Z M126.465688,5.1 L121.47599,16.9962099 L120.635696,15.7748108 C120.046323,14.8861096 118.852314,13.054011 118.141745,12.6761096 C120.057096,12.0758069 120.990307,10.8096564 120.918487,8.80262017 C120.886168,8.02150337 120.600235,7.30276744 120.182781,6.69251994 C119.702035,5.97152383 118.930867,5.52220086 117.949177,5.29934751 C117.370128,5.16192882 116.446792,5.1 115.193083,5.1 L109.14,5.1 L109.14,18.3482471 L112.761975,18.3482471 L112.761975,13.1995664 C112.761975,13.1995664 113.581172,13.1927858 113.872492,13.2935897 C114.296679,13.4278441 114.446603,13.4825404 115.000516,14.0796789 C115.068745,14.1447719 115.402259,14.6185048 116.029338,15.4796318 L118.111221,18.3482471 L122.378678,18.36 L124.779263,18.36 L125.917162,15.5546697 L130.457087,15.5546697 L131.729648,18.36 L135.66,18.36 L129.946267,5.1 L126.465688,5.1 Z" id="Fill-19" fill="#FFFFFF" mask="url(#mask-2)"></path>
                    <polygon id="Fill-20" fill="#FFFFFF" mask="url(#mask-2)" points="144.541905 12.1684741 139.952024 5.1 136.68 5.1 136.68 18.36 140.053465 18.36 140.053465 11.3656596 144.562105 18.36 147.9 18.36 147.9 5.1 144.541905 5.1"></polygon>
                    <polygon id="Fill-21" fill="#FFFFFF" mask="url(#mask-2)" points="156.06 8.12637554 159.876073 8.12637554 159.876073 18.36 163.4275 18.36 163.4275 8.12275926 167.28 8.12275926 167.28 5.1 156.06 5.1"></polygon>
                    <path d="M184.19836,12.5287462 L185.317431,9.68770505 L186.458558,12.5287462 L184.19836,12.5287462 Z M183.569953,5.1 L178.593556,16.9021865 L178.603009,15.3372407 L171.9264,15.3372407 L171.9264,5.1 L168.3,5.1 L168.3,18.36 L176.160951,18.36 L179.05946,18.36 L181.880093,18.36 L183.021221,15.520315 L187.562774,15.520315 L188.855601,18.36 L192.78,18.36 L187.049604,5.1 L183.569953,5.1 Z" id="Fill-22" fill="#FFFFFF" mask="url(#mask-2)"></path>
                    <path d="M201.056999,10.087752 C200.851604,10.3620626 200.533354,10.5333372 200.085999,10.6088065 C199.866158,10.6449594 199.477938,10.6621321 198.895158,10.6621321 L197.462807,10.6621321 L197.462807,8.13413673 L198.76876,8.13413673 C199.467556,8.13413673 199.950573,8.15673233 200.187116,8.1974044 C200.909837,8.31761298 201.278194,8.71891078 201.278194,9.39316338 C201.278194,9.65933951 201.204613,9.88891078 201.056999,10.087752 M205.02,9.35339513 C205.02,8.37952491 204.76856,7.53219003 204.27516,6.82178447 C203.723075,6.04991889 202.967401,5.54603708 201.986018,5.29884125 C201.424454,5.16507532 200.222779,5.1 198.391826,5.1 L195.804297,5.1 L193.8,5.1 L193.8,18.36 L197.462807,18.36 L197.462807,13.7066628 L198.538989,13.7066628 C199.933419,13.7066628 200.988835,13.6447509 201.665511,13.5073696 C202.191865,13.4102086 202.715961,13.1937428 203.245475,12.8561645 C204.432705,12.094241 205.02,10.9278563 205.02,9.35339513" id="Fill-23" fill="#FFFFFF" mask="url(#mask-2)"></path>
                    <path d="M208.381417,12.5311504 L209.539676,9.69039984 L210.731,12.5311504 L208.381417,12.5311504 Z M207.730799,5.1 L201.96,18.36 L205.972221,18.36 L207.169135,15.5228653 L211.878081,15.5228653 L213.189097,18.36 L217.26,18.36 L211.331786,5.1 L207.730799,5.1 Z" id="Fill-24" fill="#FFFFFF" mask="url(#mask-2)"></path>
                    <polygon id="Fill-25" fill="#FFFFFF" mask="url(#mask-2)" points="221.88414 5.1 218.28 5.1 218.28 18.36 228.48 18.36 228.48 15.3367887 221.88414 15.3367887"></polygon>
                    <polygon id="Fill-26" fill="#FFFFFF" mask="url(#mask-2)" points="233.16678 12.9400252 239.946631 12.9400252 239.946631 9.91079131 233.177262 9.91079131 233.177262 8.1481722 240.455223 8.1481722 240.455223 5.1 229.5 5.1 229.5 18.36 240.72 18.36 240.72 15.3325698 233.177262 15.3325698"></polygon>
                    <path d="M249.644114,9.84035525 C249.467433,10.0835545 249.124807,10.2306472 248.625628,10.2820845 C248.537064,10.294267 248.136737,10.3028399 247.460877,10.3028399 L245.349207,10.3028399 L245.349207,8.15555737 L247.548994,8.15555737 C248.30805,8.15555737 248.749528,8.16367905 248.885058,8.17721519 C249.509926,8.27151695 249.825268,8.61398122 249.825268,9.20686403 C249.825268,9.45998979 249.769803,9.67115353 249.644114,9.84035525 M252.244675,14.3063781 C251.77636,13.7071784 251.474437,13.190098 250.737298,12.6865537 L250.689885,12.676176 C252.598037,12.1315721 253.550323,10.9124173 253.550323,9.01871172 C253.550323,8.19345855 253.33115,7.46025112 252.890119,6.8163822 C252.378416,6.05610249 251.610414,5.55255819 250.564196,5.31251735 C249.951404,5.17219273 248.978542,5.1 247.652766,5.1 L246.606995,5.1 L241.74,5.1 L241.74,18.36 L244.633091,18.36 L245.349207,18.36 L245.349207,13.2171703 C246.369929,13.2171703 246.665143,13.3579461 246.665143,13.3579461 C247.06055,13.4811249 247.357552,13.8168212 247.809318,14.3681931 C247.866572,14.4417395 248.183702,14.8730911 248.761158,15.6798448 L250.699725,18.36 L255,18.36 L253.523039,16.1833891 C252.925455,15.2859432 252.562253,14.7160719 252.244675,14.3063781" id="Fill-27" fill="#FFFFFF" mask="url(#mask-2)"></path>
                    <path d="M263.267486,14.9568117 C262.788277,15.7758159 262.073941,16.1893258 261.142841,16.1893258 C260.216667,16.1893258 259.497405,15.787132 259.007895,14.9723714 C258.591833,14.2693575 258.372382,13.3536948 258.372382,12.2258549 C258.372382,11.0824553 258.57571,10.1682071 258.997594,9.48405336 C259.476804,8.69145348 260.189348,8.29444628 261.142841,8.29444628 C262.084241,8.29444628 262.803504,8.68626692 263.267486,9.46802219 C263.679069,10.1427458 263.891355,11.0555795 263.891355,12.2027511 C263.891355,13.3348346 263.679069,14.2552123 263.267486,14.9568117 M261.112386,5.1 C259.2578,5.1 257.816588,5.6959823 256.748891,6.89313346 C255.592966,8.20674635 255,10.0173255 255,12.3187413 C255,14.4664465 255.524891,16.1591494 256.592588,17.4260833 C257.69074,18.7302661 259.200026,19.38 261.142841,19.38 C263.073563,19.38 264.584641,18.7147065 265.672492,17.3831764 C266.729888,16.1143565 267.24,14.4056224 267.24,12.2598032 C267.24,10.1031394 266.717796,8.38214621 265.662639,7.09682361 C264.584641,5.76953708 263.052962,5.1 261.112386,5.1" id="Fill-28" fill="#FFFFFF" mask="url(#mask-2)"></path>
                    <path d="M274.382118,22.8956245 C272.997832,22.8956245 271.880831,21.7778898 271.880831,20.4012711 C271.880831,19.0204154 272.997832,17.9026807 274.382118,17.9026807 C275.754967,17.9026807 276.874086,19.0204154 276.874086,20.4012711 C276.874086,21.7778898 275.754967,22.8956245 274.382118,22.8956245 M274.382118,17.34 C272.682683,17.34 271.32,18.7081446 271.32,20.4012711 C271.32,22.086771 272.682683,23.46 274.382118,23.46 C276.065457,23.46 277.44,22.086771 277.44,20.4012711 C277.44,18.7081446 276.065457,17.34 274.382118,17.34" id="Fill-29" fill="#FFFFFF" mask="url(#mask-2)"></path>
                    <path d="M274.98801,19.647439 C274.948112,19.6508315 274.801964,19.6508315 274.559974,19.6508315 L274.056913,19.6508315 L274.056913,18.8794706 L274.584694,18.8794706 C274.867883,18.8794706 275.034413,18.8794706 275.088622,18.8879518 C275.320638,18.9235726 275.432526,19.0457012 275.432526,19.2598503 C275.432526,19.3514468 275.406071,19.4222644 275.361403,19.4867212 C275.295918,19.573653 275.175791,19.6266602 274.98801,19.647439 M275.68449,20.3959008 C275.562628,20.2674113 275.417347,20.1558841 275.239974,20.0676802 C275.845816,19.9905017 276.143316,19.7055349 276.143316,19.2191408 C276.143316,19.036372 276.087372,18.8781984 276.001939,18.7382594 C275.88051,18.5694845 275.704005,18.4596535 275.47199,18.4049501 C275.330179,18.374418 275.109872,18.36 274.801964,18.36 L273.36,18.36 L273.36,21.42 L274.056913,21.42 L274.056913,20.140194 L274.196556,20.140194 C274.352679,20.140194 274.465,20.154612 274.540459,20.1753908 C274.636301,20.2042267 274.74602,20.2911585 274.857908,20.4281292 C274.867883,20.4476358 274.958954,20.552378 275.109872,20.7533814 L275.593418,21.42 L276.42,21.42 L276.001939,20.8212306 C275.860561,20.6164108 275.759949,20.471383 275.68449,20.3959008" id="Fill-30" fill="#FFFFFF" mask="url(#mask-2)"></path>
                </g>
            </g>
        </g>
    </g>
</svg>