<?xml version="1.0" encoding="UTF-8"?>
<svg width="14px" height="14px" viewBox="0 0 14 14" version="1.1" xmlns="http://www.w3.org/2000/svg" xmlns:xlink="http://www.w3.org/1999/xlink">
    <!-- Generator: Sketch 63.1 (92452) - https://sketch.com -->
    <title>Lupa_buscador@3x</title>
    <desc>Created with Sketch.</desc>
    <g id="Symbols" stroke="none" stroke-width="1" fill="none" fill-rule="evenodd">
        <g id="Menú-Copy-9" transform="translate(-1024.000000, -60.000000)" fill="#FFFFFF" fill-rule="nonzero">
            <g id="Lupa_buscador" transform="translate(1024.000000, 60.000000)">
                <path d="M13.8096038,12.1038961 L11.0832325,9.37799043 C10.9601767,9.25495557 10.7933676,9.18660287 10.6183548,9.18660287 L10.1726191,9.18660287 C10.9273618,8.22146275 11.3758321,7.0075188 11.3758321,5.68694463 C11.3758321,2.54545455 8.82994273,0 5.68791604,0 C2.54588934,0 0,2.54545455 0,5.68694463 C0,8.82843472 2.54588934,11.3738893 5.68791604,11.3738893 C7.00871577,11.3738893 8.22286708,10.9254956 9.18817206,10.1708817 L9.18817206,10.6165414 C9.18817206,10.7915243 9.25653644,10.9583049 9.37959231,11.0813397 L12.1059636,13.8072454 C12.3630137,14.0642515 12.7786691,14.0642515 13.0329845,13.8072454 L13.8068693,13.0334928 C14.0639193,12.7764867 14.0639193,12.3609023 13.8096038,12.1038961 Z M5.68791604,9.18660287 C3.7545715,9.18660287 2.18766001,7.6226931 2.18766001,5.68694463 C2.18766001,3.75393028 3.75183693,2.1872864 5.68791604,2.1872864 C7.62126058,2.1872864 9.18817206,3.75119617 9.18817206,5.68694463 C9.18817206,7.61995899 7.62399515,9.18660287 5.68791604,9.18660287 Z" id="Shape"></path>
            </g>
        </g>
    </g>
</svg>