<?xml version="1.0" encoding="UTF-8"?>
<svg width="99px" height="18px" viewBox="0 0 99 18" version="1.1" xmlns="http://www.w3.org/2000/svg" xmlns:xlink="http://www.w3.org/1999/xlink">
    <!-- Generator: Sketch 63.1 (92452) - https://sketch.com -->
    <title>mc_hrz_pos</title>
    <desc>Created with Sketch.</desc>
    <g id="Page-1" stroke="none" stroke-width="1" fill="none" fill-rule="evenodd">
        <g id="Home" transform="translate(-640.000000, -794.000000)">
            <g id="mc_hrz_pos" transform="translate(631.000000, 790.000000)">
                <rect id="Rectangle" x="0" y="0" width="114.957593" height="26.3927984"></rect>
                <path d="M51.9335969,16.106399 L51.9335969,12.5063993 C51.9335969,11.1479993 51.067197,10.2335994 49.672797,10.2215994 C48.8639929,10.1693074 48.0907418,10.5609899 47.6543972,11.2439993 C47.2567094,10.5811243 46.5283223,10.188845 45.7559973,10.2215994 C45.0842847,10.1891582 44.4454266,10.5140632 44.0759974,11.0759993 L44.0759974,10.3559994 L42.8255974,10.3559994 L42.8255974,16.106399 L44.0879974,16.106399 L44.0879974,12.9215992 C44.0879974,11.9231993 44.6399973,11.3951993 45.4943973,11.3951993 C46.3487972,11.3951993 46.7447972,11.9351993 46.7447972,12.9095992 L46.7447972,16.106399 L47.9999971,16.106399 L47.9999971,12.9215992 C47.9999971,11.9231993 48.5759971,11.3951993 49.4063971,11.3951993 C50.236797,11.3951993 50.668797,11.9351993 50.668797,12.9095992 L50.668797,16.106399 L51.9335969,16.106399 Z M70.6127958,10.3607994 L68.5703959,10.3607994 L68.5703959,8.61839949 L67.307996,8.61839949 L67.307996,10.3607994 L66.1415961,10.3607994 L66.1415961,11.5031993 L67.307996,11.5031993 L67.307996,14.1215992 C67.307996,15.4559991 67.823996,16.2504144 69.3023959,16.2504144 C69.8545745,16.2521829 70.396076,16.0983 70.8647958,15.8063991 L70.5047958,14.7359991 C70.1693273,14.9358203 69.7886602,15.0472955 69.3983959,15.0599991 C68.7743959,15.0599991 68.5679959,14.6759991 68.5679959,14.0999992 L68.5679959,11.5031993 L70.6103958,11.5031993 L70.6127958,10.3607994 Z M81.2759952,10.2167994 C80.6549237,10.1986954 80.0737592,10.521974 79.7615952,11.0591993 L79.7615952,10.3607994 L78.5231953,10.3607994 L78.5231953,16.106399 L79.7735952,16.106399 L79.7735952,12.8855992 C79.7735952,11.9255993 80.1815952,11.4071993 80.9999952,11.4071993 C81.2677233,11.4033264 81.5335897,11.4522589 81.7823951,11.5511993 L82.1663951,10.3727994 C81.880613,10.2705922 81.5795024,10.2178369 81.2759952,10.2167994 L81.2759952,10.2167994 Z M65.1551961,10.8167994 C64.4472534,10.3962073 63.6333469,10.1879406 62.8103963,10.2167994 C61.3559963,10.2167994 60.4103964,10.9151993 60.4103964,12.0551993 C60.4103964,12.9935992 61.1063964,13.5695992 62.3927963,13.7495992 L62.9807962,13.8335992 C63.6647962,13.9295992 63.9911962,14.1095992 63.9911962,14.4335991 C63.9911962,14.8775991 63.5351962,15.1319991 62.6807963,15.1319991 C61.9914938,15.1538958 61.3149793,14.942485 60.7607964,14.5319991 L60.1919964,15.5039991 C60.9201528,16.0131214 61.7926393,16.2747832 62.6807963,16.250399 C64.3391962,16.250399 65.3015961,15.4679991 65.3015961,14.3759991 C65.3015961,13.3655992 64.5431962,12.8375992 63.2951962,12.6575992 L62.7071963,12.5735993 C62.1671963,12.5015993 61.7327963,12.3935993 61.7327963,12.0095993 C61.7327963,11.5895993 62.1407963,11.3375993 62.8271963,11.3375993 C63.4560939,11.3468938 64.0722617,11.5162161 64.6175961,11.8295993 L65.1551961,10.8167994 Z M98.6399941,10.2167994 C98.0189227,10.1986954 97.4377582,10.521974 97.1255942,11.0591993 L97.1255942,10.3607994 L95.8871943,10.3607994 L95.8871943,16.106399 L97.1375942,16.106399 L97.1375942,12.8855992 C97.1375942,11.9255993 97.5455942,11.4071993 98.3639941,11.4071993 C98.6317223,11.4033264 98.8975887,11.4522589 99.1463941,11.5511993 L99.5303941,10.3727994 C99.244612,10.2705922 98.9435013,10.2178369 98.6399941,10.2167994 Z M82.5383951,13.2335992 C82.5383951,14.9759991 83.752795,16.250399 85.6031949,16.250399 C86.3535218,16.2875215 87.0906044,16.0426834 87.6695948,15.5639991 L87.0695948,14.5535991 C86.6373576,14.882768 86.110469,15.0637282 85.5671949,15.0695991 C84.568795,15.0695991 83.836795,14.3351991 83.836795,13.2311992 C83.836795,12.1271993 84.571195,11.4047993 85.5671949,11.3927993 C86.110469,11.3986703 86.6373576,11.5796304 87.0695948,11.9087993 L87.6695948,10.8983994 C87.0906044,10.4197151 86.3535218,10.1748769 85.6031949,10.2119994 C83.752795,10.2119994 82.5383951,11.4863993 82.5383951,13.2287992 L82.5383951,13.2335992 Z M94.2455944,13.2335992 L94.2455944,10.3535994 L92.9951945,10.3535994 L92.9951945,11.0519993 C92.5626161,10.4937974 91.886363,10.1798228 91.1807946,10.2095994 C89.5703947,10.2095994 88.3007947,11.4719993 88.3007947,13.2263992 C88.3007947,14.9807991 89.5631947,16.243199 91.1807946,16.243199 C91.886363,16.2729757 92.5626161,15.959001 92.9951945,15.4007991 L92.9951945,16.096799 L94.2455944,16.096799 L94.2455944,13.2335992 Z M89.5943947,13.2335992 C89.5943947,12.2231993 90.2543946,11.3951993 91.3367946,11.3951993 C92.3711945,11.3951993 93.0671945,12.1895993 93.0671945,13.2335992 C93.0671945,14.2775991 92.3711945,15.0719991 91.3367946,15.0719991 C90.2543946,15.0719991 89.5943947,14.2415992 89.5943947,13.2335992 Z M74.5079956,10.2167994 C72.8279957,10.2167994 71.6471957,11.4431993 71.6471957,13.2335992 C71.6471957,15.0599991 72.8735957,16.250399 74.5919956,16.250399 C75.4500148,16.280461 76.2890383,15.9933817 76.9487954,15.4439991 L76.3367954,14.5175991 C75.8594645,14.8995117 75.2680686,15.1107245 74.6567956,15.1175991 C73.8503956,15.1175991 73.1183956,14.7455991 72.9383957,13.7111992 L77.2055954,13.7111992 C77.2175954,13.5551992 77.2295954,13.3991992 77.2295954,13.2311992 C77.2295954,11.4407993 76.1111955,10.2143994 74.5007956,10.2143994 L74.5079956,10.2167994 Z M74.4839956,11.3351993 C75.2903955,11.3351993 75.8063955,11.8391993 75.9383955,12.7295992 L72.9599957,12.7295992 C73.0919956,11.8991993 73.5959956,11.3351993 74.4863956,11.3351993 L74.4839956,11.3351993 Z M105.839994,13.2335992 L105.839994,8.05199952 L104.589594,8.05199952 L104.589594,11.0567993 C104.157015,10.4985974 103.480762,10.1846228 102.775194,10.2143994 C101.164794,10.2143994 99.895194,11.4767993 99.895194,13.2311992 C99.895194,14.9855991 101.157594,16.247999 102.775194,16.247999 C103.480762,16.2777757 104.157015,15.963801 104.589594,15.4055991 L104.589594,16.101599 L105.839994,16.101599 L105.839994,13.2335992 Z M107.301594,15.5759991 C107.351043,15.5758051 107.400022,15.5856009 107.445594,15.6047991 C107.489452,15.6235197 107.529358,15.6503953 107.563194,15.6839991 C107.596727,15.7169729 107.623614,15.7560816 107.642394,15.7991991 C107.681366,15.8895766 107.681366,15.9920215 107.642394,16.082399 C107.623562,16.1254877 107.596682,16.164587 107.563194,16.197599 C107.529249,16.2310697 107.48937,16.2579275 107.445594,16.276799 C107.400082,16.2961912 107.351063,16.3059951 107.301594,16.305599 C107.151991,16.3074667 107.015828,16.2195277 106.955994,16.082399 C106.917304,15.9919633 106.917304,15.8896348 106.955994,15.7991991 C106.993528,15.7110754 107.064216,15.6412496 107.152794,15.6047991 C107.201418,15.5845704 107.253744,15.5747594 107.306394,15.5759991 L107.301594,15.5759991 Z M107.301594,16.223999 C107.339499,16.2245943 107.377108,16.2172361 107.411994,16.202399 C107.44506,16.1880814 107.475172,16.167735 107.500794,16.142399 C107.611862,16.0309458 107.611862,15.8506523 107.500794,15.7391991 C107.475282,15.7137296 107.445143,15.693365 107.411994,15.6791991 C107.377067,15.6644963 107.339486,15.6571436 107.301594,15.6575991 C107.262919,15.6570867 107.224543,15.6644352 107.188794,15.6791991 C107.101897,15.7163016 107.038975,15.7939798 107.020723,15.8866856 C107.00247,15.9793914 107.031248,16.0751246 107.097594,16.142399 C107.123853,16.168077 107.154818,16.1884491 107.188794,16.202399 C107.22601,16.2178864 107.266103,16.2252505 107.306394,16.223999 L107.301594,16.223999 Z M107.323194,15.7679991 C107.359131,15.765481 107.394811,15.7756751 107.423994,15.7967991 C107.447954,15.8159346 107.461331,15.8453647 107.459994,15.8759991 C107.46087,15.902265 107.450373,15.9276323 107.431194,15.945599 C107.409188,15.9651744 107.381362,15.9769795 107.351994,15.979199 L107.462394,16.106399 L107.375994,16.106399 L107.272794,15.979199 L107.239194,15.979199 L107.239194,16.106399 L107.167194,16.106399 L107.167194,15.7703991 L107.323194,15.7679991 Z M107.239194,15.8303991 L107.239194,15.9215991 L107.323194,15.9215991 C107.338085,15.9259324 107.353902,15.9259324 107.368794,15.9215991 C107.379864,15.9140897 107.386228,15.9013607 107.385594,15.8879991 C107.386228,15.8746374 107.379864,15.8619084 107.368794,15.8543991 C107.353902,15.8500657 107.338085,15.8500657 107.323194,15.8543991 L107.239194,15.8303991 Z M101.193594,13.2335992 C101.193594,12.2231993 101.853594,11.3951993 102.935994,11.3951993 C103.970394,11.3951993 104.666394,12.1895993 104.666394,13.2335992 C104.666394,14.2775991 103.970394,15.0719991 102.935994,15.0719991 C101.853594,15.0719991 101.193594,14.2415992 101.193594,13.2335992 Z M58.9775965,13.2335992 L58.9775965,10.3535994 L57.7271966,10.3535994 L57.7271966,11.0519993 C57.2946012,10.4986195 56.6217944,10.187681 55.9199967,10.2167994 C54.3095968,10.2167994 53.0399968,11.4791993 53.0399968,13.2335992 C53.0399968,14.9879991 54.3023968,16.250399 55.9199967,16.250399 C56.6255651,16.2801757 57.3018182,15.966201 57.7343966,15.4079991 L57.7343966,16.103999 L58.9847965,16.103999 L58.9775965,13.2335992 Z M54.3263968,13.2335992 C54.3263968,12.2231993 54.9863967,11.3951993 56.0687967,11.3951993 C57.1031966,11.3951993 57.7991966,12.1895993 57.7991966,13.2335992 C57.7991966,14.2775991 57.1031966,15.0719991 56.0687967,15.0719991 C54.9863967,15.0719991 54.3263968,14.2439992 54.3263968,13.2335992 L54.3263968,13.2335992 Z" id="Shape" fill="#231F20" fill-rule="nonzero"></path>
                <g id="_Group_" transform="translate(8.879999, 4.320000)" fill-rule="nonzero">
                    <rect id="Rectangle" fill="#FF5F00" x="10.4303994" y="2.08319988" width="7.55999955" height="13.5863992"></rect>
                    <path d="M10.9103993,8.87999947 C10.9083107,6.22919998 12.1251854,3.72465067 14.2103992,2.08799988 C10.667949,-0.695987531 5.58084862,-0.29047569 2.52417534,3.01955257 C-0.532497935,6.32958084 -0.532497935,11.4328181 2.52417534,14.7428464 C5.58084862,18.0528746 10.667949,18.4583865 14.2103992,15.6743991 C12.1245218,14.0372285 10.9075728,11.5316412 10.9103993,8.87999947 Z" id="_Path_" fill="#EB001B"></path>
                    <path d="M28.1903986,8.87999947 C28.1903986,12.1880106 26.3014594,15.2055952 23.3260199,16.6511735 C20.3505803,18.0967519 16.8109405,17.7165337 14.2103992,15.6719991 C16.2947031,14.0339588 17.5116694,11.5297425 17.5116694,8.87879947 C17.5116694,6.22785647 16.2947031,3.72364014 14.2103992,2.08559988 C16.8112809,0.0407974595 20.3514711,-0.339231272 23.3270994,1.10694962 C26.3027277,2.55313051 28.1912403,5.57155539 28.1903986,8.87999947 Z" id="Path" fill="#F79E1B"></path>
                    <path d="M27.3599984,14.2295992 L27.3599984,13.9511992 L27.4727984,13.9511992 L27.4727984,13.8959992 L27.1919984,13.8959992 L27.1919984,13.9535992 L27.3047984,13.9535992 L27.3047984,14.2319992 L27.3599984,14.2295992 Z M27.9143983,14.2295992 L27.9143983,13.8935992 L27.8399983,13.8935992 L27.7391983,14.1335992 L27.6383984,13.8935992 L27.5495984,13.8935992 L27.5495984,14.2295992 L27.5999984,14.2295992 L27.5999984,13.9775992 L27.6935983,14.1959992 L27.7583983,14.1959992 L27.8519983,13.9775992 L27.8519983,14.2319992 L27.9143983,14.2295992 Z" id="Shape" fill="#F79E1B"></path>
                </g>
            </g>
        </g>
    </g>
</svg>