<?xml version="1.0" encoding="UTF-8"?><svg id="Capa_2" xmlns="http://www.w3.org/2000/svg" xmlns:xlink="http://www.w3.org/1999/xlink" viewBox="0 0 695.69 224.89"><defs><linearGradient id="linear-gradient" x1="584.34" y1="210.84" x2="584.34" y2="45.67" gradientUnits="userSpaceOnUse"><stop offset=".15" stop-color="#e30613"/><stop offset=".17" stop-color="#e31118"/><stop offset=".22" stop-color="#e42322"/><stop offset=".27" stop-color="#e52f28"/><stop offset=".32" stop-color="#e6332a"/><stop offset=".67" stop-color="#fbb906"/><stop offset=".89" stop-color="#48ac33"/><stop offset="1" stop-color="#009b3e"/></linearGradient><linearGradient id="linear-gradient-2" x1="512.98" y1="-54.46" x2="628.89" y2="138.3" gradientTransform="translate(24.67 21.74) rotate(4.55)" gradientUnits="userSpaceOnUse"><stop offset=".14" stop-color="#3aaa35"/><stop offset=".17" stop-color="#50ad2f"/><stop offset=".28" stop-color="#99b81b"/><stop offset=".37" stop-color="#cfc00c"/><stop offset=".43" stop-color="#f0c603"/><stop offset=".47" stop-color="#fdc800"/><stop offset=".72" stop-color="#e30613"/><stop offset="1" stop-color="#e30613"/></linearGradient></defs><g id="Zona_del_Remate"><path d="m183.26,90.41l-2.02,10.66h-42.77v-.86l24.41-39.17h-22.25l2.02-10.66h40.18v.72l-24.55,39.31h24.98Z" style="fill:#1d1d1b;"/><path d="m229.98,75.72c0,7.63-2.42,14.05-7.27,19.26-4.85,5.21-10.82,7.81-17.93,7.81s-13.08-2.6-17.93-7.81c-4.85-5.21-7.27-11.63-7.27-19.26s2.42-14.05,7.27-19.26c4.85-5.21,10.82-7.81,17.93-7.81s13.08,2.6,17.93,7.81c4.85,5.21,7.27,11.63,7.27,19.26Zm-12.38,0c0-4.66-1.18-8.41-3.53-11.27-2.35-2.85-5.45-4.28-9.29-4.28s-6.94,1.43-9.29,4.28c-2.35,2.86-3.53,6.61-3.53,11.27s1.18,8.41,3.53,11.27c2.35,2.86,5.45,4.28,9.29,4.28s6.94-1.43,9.29-4.28c2.35-2.86,3.53-6.61,3.53-11.27Z" style="fill:#1d1d1b;"/><path d="m275.85,102.79h-1.3l-32.26-29.74v28.01h-10.94v-52.42h1.3l32.26,29.88v-28.15h10.94v52.42Z" style="fill:#1d1d1b;"/><path d="m326.39,101.07h-12.6l-3.17-7.49h-21.1l-3.17,7.49h-11.95l25.7-52.42h1.01l25.27,52.42Zm-19.37-15.98l-6.98-16.42-6.91,16.42h13.9Z" style="fill:#1d1d1b;"/><path d="m363.88,96.27c-3.6,3.22-8.69,4.8-15.6,4.8h-8.4v-33.79h7.01c5.52,0,9.07.58,12.58,2.02,5.95,2.5,9.5,7.97,9.5,14.79,0,4.85-1.82,9.26-5.09,12.19Zm-15.7-23.71h-2.21v23.19h3.02c8.54,0,13.92-4.51,13.92-11.67s-5.42-11.52-14.74-11.52Z" style="fill:#575756;"/><path d="m370.5,101.07v-33.79h19.68v5.18h-13.58v8.35h11.52v5.18h-11.52v9.89h13.87v5.18h-19.97Z" style="fill:#575756;"/><path d="m392.53,101.07v-33.79h6.05v28.51h15.07v5.28h-21.12Z" style="fill:#575756;"/><path d="m73.81,102.37v-33.79h6.05v28.51h15.07v5.28h-21.12Z" style="fill:#575756;"/><path d="m124.41,102.37l-2.74-6.1h-16.61l-2.83,6.1h-6.14l17.38-34.95h.62l16.66,34.95h-6.34Zm-10.94-24.43l-6.29,13.73h12.43l-6.14-13.73Z" style="fill:#575756;"/><path d="m76.4,208.86h-25.78l-25.78-37.33h-3.09v37.33H0v-94.53h25.91c12.08,0,21.5,2.48,28.26,7.45,6.76,4.97,10.14,11.93,10.14,20.88,0,11.01-5.82,19.47-17.46,25.38l29.54,40.82Zm-31.69-64.45c0-4.74-1.52-8.12-4.57-10.14-3.04-2.01-8.19-3.02-15.44-3.02h-2.95v29c8.06-.09,13.9-1.41,17.52-3.96,3.62-2.55,5.44-6.51,5.44-11.88Z" style="fill:#e30613;"/><path d="m130.1,208.86h-55.59v-94.53h55.59v19.33h-33.03v17.46h27.39v19.33h-27.39v19.07h33.03v19.33Z" style="fill:#e30613;"/><path d="m243.96,208.86h-21.08l-8.59-43.5-25.78,46.73h-1.34l-27.52-47.67-8.19,44.44h-20.14l19.74-97.75h1.34l36.12,62.44,33.84-62.44h1.88l19.74,97.75Z" style="fill:#e30613;"/><path d="m334.19,208.86h-23.5l-5.91-13.96h-39.34l-5.91,13.96h-22.29l47.93-97.75h1.88l47.13,97.75Zm-36.12-29.81l-13.02-30.61-12.89,30.61h25.91Z" style="fill:#e30613;"/><path d="m395.55,132.86h-30.21v76h-22.56v-76h-30.21v-18.53h82.98v18.53Z" style="fill:#e30613;"/><path d="m455.57,208.86h-55.59v-94.53h55.59v19.33h-33.03v17.46h27.39v19.33h-27.39v19.07h33.03v19.33Z" style="fill:#e30613;"/><path d="m540.72,200.01c.48-.35.8-1.23.81-1.88.06-4.81.03-20.33.02-25.13-.01-9.91,3.39-18.57,9.61-26.19,5.75-7.04,12.88-12.4,20.72-16.89.63-.36,1.23-.77,1.86-1.16-.19-.22-.25-.32-.33-.37-.42-.25-.84-.49-1.26-.73-6.83-3.9-13.15-8.46-18.56-14.24-7.89-8.44-12.26-18.27-12.06-29.97.08-4.48.06-18.97-.02-23.46,0-.67-.42-1.57-.95-1.96-7.15-5.32-7.16-4.54.19-9.61,1.85-1.28,4.18-1.86,6.29-2.76h74.62c.71.23,1.41.45,2.12.68,4.84,1.59,8.42,4.57,9.42,9.71.99,5.06-1.09-.96-5.21,2.05-.48.35-.81,1.24-.81,1.88-.06,4.81-.03,19.62-.02,24.43.01,9.91-3.39,18.56-9.61,26.18-5.75,7.05-12.88,12.4-20.72,16.89-.63.36-1.23.76-2.01,1.26,1.38.8,2.55,1.47,3.69,2.15,7.18,4.31,13.73,9.37,19.04,15.92,5.33,6.57,8.91,13.92,9.35,22.47.31,6.03.15,22.8.29,28.85.01.67.42,1.57.95,1.96,3.64,2.71-20.1,11.09-43.77,10.74-22.87-.34-45.67-9.33-43.65-10.82Zm43.6-149.41c-7.29,0-14.58,0-21.88,0-3.34,0-4.84,1.48-4.86,4.81-.02,3.89.03,24.76-.01,28.65-.05,5.27,1.62,9.97,4.67,14.19,5.28,7.31,12.47,12.32,20.3,16.5,1.34.72,2.73.54,4.04-.17,6.31-3.4,12.15-7.45,17.04-12.74,4.99-5.4,7.89-11.63,7.56-19.17-.15-3.4-.04-23.78-.06-27.18-.02-3.5-1.41-4.88-4.91-4.89-7.29,0-14.58,0-21.88,0Zm.11,154.01c7.35,0,14.7,0,22.04,0,3.13,0,4.64-1.52,4.66-4.67.03-4-.01-23.47,0-27.46.03-5.21-1.66-9.86-4.68-14.03-5.28-7.3-12.47-12.31-20.3-16.48-1.34-.72-2.73-.52-4.04.18-6.26,3.37-12.05,7.4-16.93,12.63-5.05,5.43-7.99,11.69-7.65,19.3.16,3.4.04,22.28.06,25.68.02,3.49,1.41,4.86,4.94,4.86,7.29,0,14.59,0,21.88,0Z" style="fill:url(#linear-gradient); fill-rule:evenodd;"/><path d="m571.54,90.67h25.63c.45,3.39-.15,6.4-2.18,9.1-2.7,3.6-6.17,6.31-9.92,8.71-.32.21-.98.26-1.28.08-4.3-2.74-8.34-5.81-11.01-10.3-1.38-2.33-1.51-4.87-1.24-7.58Z" style="fill:#f9b233; fill-rule:evenodd;"/><path d="m602.69,191.92c-6.57,2.02-12.24,2.53-18.35,2.53s-11.18-.51-18.29-2.53c-.66-4.69.06-19.73,2.91-23.6,3.98-5.41,9.2-9.39,14.76-12.98.29-.18.87-.26,1.13-.09,5.98,3.85,11.68,8.06,15.59,14.16,2.36,3.68,2.83,17.47,2.25,22.52Z" style="fill:#e30613; fill-rule:evenodd;"/><path d="m538.66,215.7c11.03,4.76,23.02,7.82,35.66,8.83,61.9,4.93,116.08-41.26,121.01-103.16,4.93-61.9-41.26-116.08-103.16-121.01-61.9-4.93-116.08,41.26-121.01,103.16l3.09.13.59-7.77c8.38-57.36,60.63-94.63,116.91-90.15,56.28,4.48,98.7,48.38,94.22,104.66-4.48,56.28-53.74,98.28-110.02,93.79-10.46-.83-20.42-3.21-29.69-6.89l-1.86-.76c-1.29-.78-2.77-1.28-4.38-1.41-5.48-.44-10.28,3.65-10.72,9.13-.35,4.41,2.22,8.37,6.09,9.98l3.27,1.47Z" style="fill:url(#linear-gradient-2);"/><path d="m625.07,63.51c-11.88-7.19-25.8-11.33-40.7-11.33s-28.96,4.18-40.87,11.43l-.19.06c-1.4.86-3.05,1.35-4.81,1.35-5.1,0-9.24-4.14-9.24-9.24,0-3.42,1.86-6.41,4.63-8.01l.12-.12c14.69-8.91,31.92-14.04,50.36-14.04s35.94,5.21,50.7,14.25l.1.09c2.6,1.63,4.33,4.53,4.33,7.82,0,5.1-4.14,9.24-9.24,9.24-1.79,0-3.47-.51-4.89-1.4l-.31-.12Z" style="fill:#3aaa35; fill-rule:evenodd;"/><path d="m485.28,110.67c-.27,8.6-.72,14.64-1.34,18.13l-9.67,51.17-6.45-1.07-7.39-52.65c-.36-2.6-.54-5.64-.54-9.13v-3.22l25.39-3.22Zm-1.75,89.32c0,3.14-1.12,5.8-3.36,7.99-2.24,2.19-4.93,3.29-8.06,3.29s-5.66-1.1-7.86-3.29c-2.19-2.19-3.29-4.86-3.29-7.99s1.1-5.8,3.29-7.99c2.19-2.19,4.81-3.29,7.86-3.29s5.82,1.1,8.06,3.29c2.24,2.19,3.36,4.86,3.36,7.99Z" style="fill:#e30613;"/></g></svg>