<?xml version="1.0" encoding="UTF-8"?>
<svg width="696px" height="225px" viewBox="0 0 696 225" version="1.1" xmlns="http://www.w3.org/2000/svg" xmlns:xlink="http://www.w3.org/1999/xlink">
    <!-- Generator: Sketch 63.1 (92452) - https://sketch.com -->
    <title>Recurso_2 Copy</title>
    <desc>Created with Sketch.</desc>
    <defs>
        <linearGradient x1="50.0095537%" y1="99.9996107%" x2="50.0095537%" y2="0.00605397813%" id="linearGradient-1">
            <stop stop-color="#E30613" offset="15%"></stop>
            <stop stop-color="#E31118" offset="17%"></stop>
            <stop stop-color="#E42322" offset="22%"></stop>
            <stop stop-color="#E52F28" offset="27%"></stop>
            <stop stop-color="#E6332A" offset="32%"></stop>
            <stop stop-color="#FBB906" offset="67%"></stop>
            <stop stop-color="#48AC33" offset="89%"></stop>
            <stop stop-color="#009B3E" offset="100%"></stop>
        </linearGradient>
        <linearGradient x1="30.8784706%" y1="3.62241709%" x2="75.3855092%" y2="93.1534603%" id="linearGradient-2">
            <stop stop-color="#3AAA35" offset="14%"></stop>
            <stop stop-color="#50AD2F" offset="17%"></stop>
            <stop stop-color="#99B81B" offset="28%"></stop>
            <stop stop-color="#CFC00C" offset="37%"></stop>
            <stop stop-color="#F0C603" offset="43%"></stop>
            <stop stop-color="#FDC800" offset="47%"></stop>
            <stop stop-color="#E30613" offset="72%"></stop>
            <stop stop-color="#E30613" offset="100%"></stop>
        </linearGradient>
    </defs>
    <g id="Page-1" stroke="none" stroke-width="1" fill="none" fill-rule="evenodd">
        <g id="Recurso_2-Copy">
            <polygon id="Path" fill="#FFFFFF" fill-rule="nonzero" points="183.26 90.41 181.24 101.07 138.47 101.07 138.47 100.21 162.88 61.04 140.63 61.04 142.65 50.38 182.83 50.38 182.83 51.1 158.28 90.41 183.26 90.41"></polygon>
            <path d="M229.98,75.72 C229.98,83.35 227.56,89.77 222.71,94.98 C217.86,100.19 211.89,102.79 204.78,102.79 C197.67,102.79 191.7,100.19 186.85,94.98 C182,89.77 179.58,83.35 179.58,75.72 C179.58,68.09 182,61.67 186.85,56.46 C191.7,51.25 197.67,48.65 204.78,48.65 C211.89,48.65 217.86,51.25 222.71,56.46 C227.56,61.67 229.98,68.09 229.98,75.72 Z M217.6,75.72 C217.6,71.06 216.42,67.31 214.07,64.45 C211.72,61.6 208.62,60.17 204.78,60.17 C200.94,60.17 197.84,61.6 195.49,64.45 C193.14,67.31 191.96,71.06 191.96,75.72 C191.96,80.38 193.14,84.13 195.49,86.99 C197.84,89.85 200.94,91.27 204.78,91.27 C208.62,91.27 211.72,89.84 214.07,86.99 C216.42,84.13 217.6,80.38 217.6,75.72 Z" id="Shape" fill="#FFFFFF" fill-rule="nonzero"></path>
            <polygon id="Path" fill="#FFFFFF" fill-rule="nonzero" points="275.85 102.79 274.55 102.79 242.29 73.05 242.29 101.06 231.35 101.06 231.35 48.64 232.65 48.64 264.91 78.52 264.91 50.37 275.85 50.37 275.85 102.79"></polygon>
            <path d="M326.39,101.07 L313.79,101.07 L310.62,93.58 L289.52,93.58 L286.35,101.07 L274.4,101.07 L300.1,48.65 L301.11,48.65 L326.38,101.07 L326.39,101.07 Z M307.02,85.09 L300.04,68.67 L293.13,85.09 L307.03,85.09 L307.02,85.09 Z" id="Shape" fill="#FFFFFF" fill-rule="nonzero"></path>
            <path d="M363.88,96.27 C360.28,99.49 355.19,101.07 348.28,101.07 L339.88,101.07 L339.88,67.28 L346.89,67.28 C352.41,67.28 355.96,67.86 359.47,69.3 C365.42,71.8 368.97,77.27 368.97,84.09 C368.97,88.94 367.15,93.35 363.88,96.28 L363.88,96.27 Z M348.18,72.56 L345.97,72.56 L345.97,95.75 L348.99,95.75 C357.53,95.75 362.91,91.24 362.91,84.08 C362.91,76.92 357.49,72.56 348.17,72.56 L348.18,72.56 Z" id="Shape" fill="#FFFFFF" fill-rule="nonzero"></path>
            <polygon id="Path" fill="#FFFFFF" fill-rule="nonzero" points="370.5 101.07 370.5 67.28 390.18 67.28 390.18 72.46 376.6 72.46 376.6 80.81 388.12 80.81 388.12 85.99 376.6 85.99 376.6 95.88 390.47 95.88 390.47 101.06 370.5 101.06"></polygon>
            <polygon id="Path" fill="#FFFFFF" fill-rule="nonzero" points="392.53 101.07 392.53 67.28 398.58 67.28 398.58 95.79 413.65 95.79 413.65 101.07 392.53 101.07"></polygon>
            <polygon id="Path" fill="#FFFFFF" fill-rule="nonzero" points="73.81 102.37 73.81 68.58 79.86 68.58 79.86 97.09 94.93 97.09 94.93 102.37 73.81 102.37"></polygon>
            <path d="M124.41,102.37 L121.67,96.27 L105.06,96.27 L102.23,102.37 L96.09,102.37 L113.47,67.42 L114.09,67.42 L130.75,102.37 L124.41,102.37 Z M113.47,77.94 L107.18,91.67 L119.61,91.67 L113.47,77.94 L113.47,77.94 Z" id="Shape" fill="#FFFFFF" fill-rule="nonzero"></path>
            <path d="M76.4,208.86 L50.62,208.86 L24.84,171.53 L21.75,171.53 L21.75,208.86 L0,208.86 L0,114.33 L25.91,114.33 C37.99,114.33 47.41,116.81 54.17,121.78 C60.93,126.75 64.31,133.71 64.31,142.66 C64.31,153.67 58.49,162.13 46.85,168.04 L76.39,208.86 L76.4,208.86 Z M44.71,144.41 C44.71,139.67 43.19,136.29 40.14,134.27 C37.1,132.26 31.95,131.25 24.7,131.25 L21.75,131.25 L21.75,160.25 C29.81,160.16 35.65,158.84 39.27,156.29 C42.89,153.74 44.71,149.78 44.71,144.41 Z" id="Shape" fill="#FFFFFF" fill-rule="nonzero"></path>
            <polygon id="Path" fill="#FFFFFF" fill-rule="nonzero" points="130.1 208.86 74.51 208.86 74.51 114.33 130.1 114.33 130.1 133.66 97.07 133.66 97.07 151.12 124.46 151.12 124.46 170.45 97.07 170.45 97.07 189.52 130.1 189.52 130.1 208.85"></polygon>
            <polygon id="Path" fill="#FFFFFF" fill-rule="nonzero" points="243.96 208.86 222.88 208.86 214.29 165.36 188.51 212.09 187.17 212.09 159.65 164.42 151.46 208.86 131.32 208.86 151.06 111.11 152.4 111.11 188.52 173.55 222.36 111.11 224.24 111.11 243.98 208.86"></polygon>
            <path d="M334.19,208.86 L310.69,208.86 L304.78,194.9 L265.44,194.9 L259.53,208.86 L237.24,208.86 L285.17,111.11 L287.05,111.11 L334.18,208.86 L334.19,208.86 Z M298.07,179.05 L285.05,148.44 L272.16,179.05 L298.07,179.05 L298.07,179.05 Z" id="Shape" fill="#FFFFFF" fill-rule="nonzero"></path>
            <polygon id="Path" fill="#FFFFFF" fill-rule="nonzero" points="395.55 132.86 365.34 132.86 365.34 208.86 342.78 208.86 342.78 132.86 312.57 132.86 312.57 114.33 395.55 114.33 395.55 132.86"></polygon>
            <polygon id="Path" fill="#FFFFFF" fill-rule="nonzero" points="455.57 208.86 399.98 208.86 399.98 114.33 455.57 114.33 455.57 133.66 422.54 133.66 422.54 151.12 449.93 151.12 449.93 170.45 422.54 170.45 422.54 189.52 455.57 189.52 455.57 208.85"></polygon>
            <path d="M540.72,200.01 C541.2,199.66 541.52,198.78 541.53,198.13 C541.59,193.32 541.56,177.8 541.55,173 C541.54,163.09 544.94,154.43 551.16,146.81 C556.91,139.77 564.04,134.41 571.88,129.92 C572.51,129.56 573.11,129.15 573.74,128.76 C573.55,128.54 573.49,128.44 573.41,128.39 C572.99,128.14 572.57,127.9 572.15,127.66 C565.32,123.76 559,119.2 553.59,113.42 C545.7,104.98 541.33,95.15 541.53,83.45 C541.61,78.97 541.59,64.48 541.51,59.99 C541.51,59.32 541.09,58.42 540.56,58.03 C533.41,52.71 533.4,53.49 540.75,48.42 C542.6,47.14 544.93,46.56 547.04,45.66 L621.66,45.66 C622.37,45.89 623.07,46.11 623.78,46.34 C628.62,47.93 632.2,50.91 633.2,56.05 C634.19,61.11 632.11,55.09 627.99,58.1 C627.51,58.45 627.18,59.34 627.18,59.98 C627.12,64.79 627.15,79.6 627.16,84.41 C627.17,94.32 623.77,102.97 617.55,110.59 C611.8,117.64 604.67,122.99 596.83,127.48 C596.2,127.84 595.6,128.24 594.82,128.74 C596.2,129.54 597.37,130.21 598.51,130.89 C605.69,135.2 612.24,140.26 617.55,146.81 C622.88,153.38 626.46,160.73 626.9,169.28 C627.21,175.31 627.05,192.08 627.19,198.13 C627.2,198.8 627.61,199.7 628.14,200.09 C631.78,202.8 608.04,211.18 584.37,210.83 C561.5,210.49 538.7,201.5 540.72,200.01 L540.72,200.01 Z M584.32,50.6 C577.03,50.6 569.74,50.6 562.44,50.6 C559.1,50.6 557.6,52.08 557.58,55.41 C557.56,59.3 557.61,80.17 557.57,84.06 C557.52,89.33 559.19,94.03 562.24,98.25 C567.52,105.56 574.71,110.57 582.54,114.75 C583.88,115.47 585.27,115.29 586.58,114.58 C592.89,111.18 598.73,107.13 603.62,101.84 C608.61,96.44 611.51,90.21 611.18,82.67 C611.03,79.27 611.14,58.89 611.12,55.49 C611.1,51.99 609.71,50.61 606.21,50.6 C598.92,50.6 591.63,50.6 584.33,50.6 L584.32,50.6 Z M584.43,204.61 C591.78,204.61 599.13,204.61 606.47,204.61 C609.6,204.61 611.11,203.09 611.13,199.94 C611.16,195.94 611.12,176.47 611.13,172.48 C611.16,167.27 609.47,162.62 606.45,158.45 C601.17,151.15 593.98,146.14 586.15,141.97 C584.81,141.25 583.42,141.45 582.11,142.15 C575.85,145.52 570.06,149.55 565.18,154.78 C560.13,160.21 557.19,166.47 557.53,174.08 C557.69,177.48 557.57,196.36 557.59,199.76 C557.61,203.25 559,204.62 562.53,204.62 C569.82,204.62 577.12,204.62 584.41,204.62 L584.43,204.61 Z" id="Shape" fill="url(#linearGradient-1)"></path>
            <path d="M571.54,90.67 L597.17,90.67 C597.62,94.06 597.02,97.07 594.99,99.77 C592.29,103.37 588.82,106.08 585.07,108.48 C584.75,108.69 584.09,108.74 583.79,108.56 C579.49,105.82 575.45,102.75 572.78,98.26 C571.4,95.93 571.27,93.39 571.54,90.68 L571.54,90.67 Z" id="Path" fill="#F9B233"></path>
            <path d="M602.69,191.92 C596.12,193.94 590.45,194.45 584.34,194.45 C578.23,194.45 573.16,193.94 566.05,191.92 C565.39,187.23 566.11,172.19 568.96,168.32 C572.94,162.91 578.16,158.93 583.72,155.34 C584.01,155.16 584.59,155.08 584.85,155.25 C590.83,159.1 596.53,163.31 600.44,169.41 C602.8,173.09 603.27,186.88 602.69,191.93 L602.69,191.92 Z" id="Path" fill="#E30613"></path>
            <path d="M538.66,215.7 C549.69,220.46 561.68,223.52 574.32,224.53 C636.22,229.46 690.4,183.27 695.33,121.37 C700.26,59.47 654.07,5.29 592.17,0.36 C530.27,-4.57 476.09,41.62 471.16,103.52 L474.25,103.65 L474.84,95.88 C483.22,38.52 535.47,1.25 591.75,5.73 C648.03,10.21 690.45,54.11 685.97,110.39 C681.49,166.67 632.23,208.67 575.95,204.18 C565.49,203.35 555.53,200.97 546.26,197.29 L544.4,196.53 C543.11,195.75 541.63,195.25 540.02,195.12 C534.54,194.68 529.74,198.77 529.3,204.25 C528.95,208.66 531.52,212.62 535.39,214.23 L538.66,215.7 L538.66,215.7 Z" id="Path" fill="url(#linearGradient-2)" fill-rule="nonzero"></path>
            <path d="M625.07,63.51 C613.19,56.32 599.27,52.18 584.37,52.18 C569.47,52.18 555.41,56.36 543.5,63.61 L543.31,63.67 C541.91,64.53 540.26,65.02 538.5,65.02 C533.4,65.02 529.26,60.88 529.26,55.78 C529.26,52.36 531.12,49.37 533.89,47.77 L534.01,47.65 C548.7,38.74 565.93,33.61 584.37,33.61 C602.81,33.61 620.31,38.82 635.07,47.86 L635.17,47.95 C637.77,49.58 639.5,52.48 639.5,55.77 C639.5,60.87 635.36,65.01 630.26,65.01 C628.47,65.01 626.79,64.5 625.37,63.61 L625.06,63.49 L625.07,63.51 Z" id="Path" fill="#3AAA35"></path>
            <path d="M485.28,110.67 C485.01,119.27 484.56,125.31 483.94,128.8 L474.27,179.97 L467.82,178.9 L460.43,126.25 C460.07,123.65 459.89,120.61 459.89,117.12 L459.89,113.9 L485.28,110.68 L485.28,110.67 Z M483.53,199.99 C483.53,203.13 482.41,205.79 480.17,207.98 C477.93,210.17 475.24,211.27 472.11,211.27 C468.98,211.27 466.45,210.17 464.25,207.98 C462.06,205.79 460.96,203.12 460.96,199.99 C460.96,196.86 462.06,194.19 464.25,192 C466.44,189.81 469.06,188.71 472.11,188.71 C475.16,188.71 477.93,189.81 480.17,192 C482.41,194.19 483.53,196.86 483.53,199.99 Z" id="Shape" fill="#FFFFFF" fill-rule="nonzero"></path>
        </g>
    </g>
</svg>