<?xml version="1.0" encoding="UTF-8"?>
<svg width="69px" height="103px" viewBox="0 0 69 103" version="1.1" xmlns="http://www.w3.org/2000/svg" xmlns:xlink="http://www.w3.org/1999/xlink">
    <!-- Generator: Sketch 63.1 (92452) - https://sketch.com -->
    <title>seguridad</title>
    <desc>Created with Sketch.</desc>
    <g id="Page-1" stroke="none" stroke-width="1" fill="none" fill-rule="evenodd">
        <g id="Home" transform="translate(-974.000000, -4442.000000)">
            <g id="seguridad" transform="translate(974.000000, 4442.000000)">
                <path d="M1.4620374,94.5247947 C3.93449409,93.7461866 21.6553061,90.3052564 54.6244735,84.2020041 L66.2565541,87.0978335 C31.3980433,99.8448721 11.8998711,104.917866 7.7620374,102.316814 C1.5552869,98.4152371 -2.24664763,95.6927069 1.4620374,94.5247947 Z" id="Path-3-Copy" fill="#BDBDBD"></path>
                <path d="M1.75996564,49.5909006 C0.952885925,46.5726063 1.78557441,44.5206501 4.2580311,43.4350319 C6.7304878,42.3494136 24.4193019,38.6710697 57.3244735,32.4 C64.4828494,35.8022948 68.0620374,38.2206359 68.0620374,39.6550234 C68.0620374,41.0894108 67.677454,56.5626528 66.9082872,86.0747494 C31.7517402,98.7094136 12.1045498,103.213415 7.96671614,99.5867521 C3.82888247,95.9600896 1.75996564,93.7094771 1.75996564,92.8349144 L1.75996564,49.5909006 Z" id="Path-3" fill="#D8D8D8"></path>
                <polygon id="Path-4" fill="#BDBDBD" style="mix-blend-mode: multiply;" points="11 58.5807063 11 55.0878791 65.8945167 44 65.8945167 45.981615"></polygon>
                <polygon id="Path-4-Copy" fill="#BDBDBD" style="mix-blend-mode: multiply;" points="11 64.5807063 11 61.0878791 65.8945167 50 65.8945167 51.981615"></polygon>
                <polygon id="Path-4-Copy-2" fill="#BDBDBD" style="mix-blend-mode: multiply;" points="11 71.5807063 11 68.0878791 65.8945167 57 65.8945167 58.981615"></polygon>
                <polygon id="Path-4-Copy-3" fill="#BDBDBD" style="mix-blend-mode: multiply;" points="11 78.5807063 11 75.0878791 65.8945167 64 65.8945167 65.981615"></polygon>
                <polygon id="Path-4-Copy-4" fill="#BDBDBD" style="mix-blend-mode: multiply;" points="11 85.5807063 11 82.0878791 66.2565541 71.2903532 66.2565541 73.2719682"></polygon>
                <polygon id="Path-4-Copy-5" fill="#BDBDBD" style="mix-blend-mode: multiply;" points="11 92.5807063 11 89.0878791 66.2565541 76.9252969 66.2565541 78.906912"></polygon>
                <polygon id="Path-4-Copy-6" fill="#BDBDBD" style="mix-blend-mode: multiply;" points="11 98.5807063 11 95.0878791 65.8945167 81.597191 65.8945167 83.0476736"></polygon>
                <path d="M6.16820086,46.1819863 C5.61295003,47.8186809 6.17927338,48.9241004 7.86717092,49.4982447 C10.3990172,50.3594611 12.6576694,50.4828304 14.4832725,50.3594611 C16.3088755,50.2360918 21.2620374,49.506695 21.2620374,47.4472162 C21.2620374,46.0742304 20.4873744,44.4557816 18.9380484,42.59187 L17.3276516,41.4 L7.86717092,41.8720807 L6.16820086,46.1819863 Z" id="Path-5" fill="#F4972A"></path>
                <path d="M48.8583238,34.2 L47.3620374,38.9592221 C48.8346079,40.8737299 51.6174044,41.6619553 55.710427,41.3238984 C59.8034495,40.9858416 62.120653,40.0348082 62.6620374,38.4707983 L60.8089896,34.904599 L48.8583238,34.2 Z" id="Path-6" fill="#F4972A"></path>
                <path d="M7.7620374,42.1714531 C8.1529735,16.879235 16.3171483,3.01444083 32.2545618,0.577070725 C56.160682,-3.07898444 60.8620374,10.9216895 60.8620374,34.5039368 C60.8620374,36.0133296 57.7682705,36.8450293 54.8322281,36.8450293 C52.8748666,36.8450293 50.9232838,36.0646651 48.9774799,34.5039368 C51.1174144,17.3231945 46.3235062,9.61931323 34.5957554,11.3922929 C22.8680046,13.1652726 17.7591394,23.6686365 19.26916,42.9023847 C17.450642,43.6836878 15.5649344,44.0123137 13.6120374,43.8882625 C11.6591404,43.7642112 9.70914038,43.1919414 7.7620374,42.1714531 Z" id="Path-2" fill="#D8D8D8"></path>
                <path d="M2.79068154,51.3 L2.79068154,92.5168868 L9.23167233,98.7562803 L9.23167233,55.2081608 C8.10778899,54.3012497 7.01791068,53.5274612 5.9620374,52.8867954 C4.90616413,52.2461296 3.8490455,51.7171978 2.79068154,51.3 Z" id="Path-7" fill="#EAEAEA"></path>
            </g>
        </g>
    </g>
</svg>