<?xml version="1.0" encoding="UTF-8"?>
<svg width="125px" height="56px" viewBox="0 0 125 56" version="1.1" xmlns="http://www.w3.org/2000/svg" xmlns:xlink="http://www.w3.org/1999/xlink">
    <!-- Generator: Sketch 63.1 (92452) - https://sketch.com -->
    <title>tlapalerotv_logo</title>
    <desc>Created with Sketch.</desc>
    <g id="Page-1" stroke="none" stroke-width="1" fill="none" fill-rule="evenodd">
        <g id="Home" transform="translate(-97.000000, -2753.000000)" fill-rule="nonzero">
            <g id="Group-7" transform="translate(97.000000, 2753.000000)">
                <g id="tlapalerotv_logo">
                    <polygon id="Path" fill="#004375" points="50.2832031 31 46.7382812 31 46.7382812 20.1034483 43 20.1034483 43 17 54 17 54 20.1264368 50.2617188 20.1264368 50.2617188 31"></polygon>
                    <polygon id="Path" fill="#004375" points="59 16 59 30 55 30 55 16"></polygon>
                    <path d="M60.678337,22.0021786 C61.9256018,21.3703704 63.3041575,21.0217865 64.7045952,21 C66.2363239,21 67.3960613,21.4357298 68.1181619,22.2200436 C68.5995624,22.7864924 68.8183807,23.6143791 68.8183807,24.8562092 L68.8183807,27.0784314 C68.8183807,28.6252723 68.9496718,28.8213508 70,28.8213508 L69.5842451,30.7821351 C68.9934354,30.956427 68.380744,31.0217865 67.7680525,30.9782135 C66.761488,30.912854 66.1925602,30.5642702 65.8643326,29.7799564 C64.6389497,30.7167756 63.916849,31 62.7571116,31 C61.1378556,31 60,29.8235294 60,28.167756 C60,26.4248366 61.1816193,25.3572985 63.4354486,25.0087146 C64.1137856,24.8997821 64.8140044,24.8562092 65.5142232,24.8344227 C65.4704595,23.7668845 64.8577681,23.2875817 63.5667396,23.3965142 C62.5601751,23.4836601 61.5754923,23.788671 60.678337,24.2679739 L60.678337,22.0021786 Z M65.536105,26.3376906 C63.8074398,26.577342 63.1509847,26.9912854 63.0853392,27.8409586 C63.0196937,28.3856209 63.4135667,28.8867102 63.9824945,28.9520697 C64.0700219,28.9520697 64.1575492,28.9520697 64.2231947,28.9520697 C64.7045952,28.8867102 65.1641138,28.7124183 65.536105,28.4291939 L65.536105,26.3376906 L65.536105,26.3376906 Z" id="Shape" fill="#004375"></path>
                    <path d="M70.6321936,35 L70.6321936,24.9079755 C70.6321936,22.7822086 70.5644585,22.4171779 70,21.6871166 L72.9803411,21 C73.3641729,21.2361963 73.6576914,21.5797546 73.7931614,21.9877301 C74.560825,21.3865031 75.5316937,21.0429448 76.5477191,21.0214724 C79.2796984,21.0214724 80.9956524,22.9539877 80.9956524,26.0030675 C81.1085441,28.5368098 79.0087583,30.6840491 76.344514,30.791411 C76.2316223,30.791411 76.1413089,30.791411 76.0284172,30.791411 C75.3962237,30.8128834 74.7640301,30.7269939 74.1544149,30.5552147 L74.1544149,35 L70.6321936,35 Z M74.1318365,27.9570552 C74.5156683,28.1932515 74.9672352,28.2791411 75.418802,28.2576687 C76.6606108,28.2576687 77.4508528,27.3773006 77.4508528,26.0460123 C77.4508528,24.7147239 76.5928758,23.8343558 75.3284886,23.8343558 C74.9220785,23.8343558 74.49309,23.9202454 74.1092582,24.0490798 L74.1318365,27.9570552 Z" id="Shape" fill="#004375"></path>
                    <path d="M81.6578947,22 C82.9078947,21.3695652 84.2894737,21.0217391 85.6929825,21 C87.2280702,21 88.3903509,21.4347826 89.1140351,22.2173913 C89.5964912,22.7826087 89.8157895,23.6086957 89.8157895,24.8478261 L89.8157895,27.0652174 C89.8157895,28.6086957 89.9692982,28.8043478 91,28.8043478 L90.6052632,30.7826087 C90.0131579,30.9565217 89.3991228,31.0217391 88.7850877,30.9782609 C87.7982456,30.9130435 87.2061404,30.5652174 86.877193,29.7826087 C85.6491228,30.7173913 84.9254386,31 83.7631579,31 C82.1403509,31 81,29.826087 81,28.173913 C81,26.4347826 82.1842105,25.3695652 84.4429825,25.0217391 C85.122807,24.9130435 85.8245614,24.8695652 86.5263158,24.8478261 C86.4824561,23.7826087 85.8684211,23.3043478 84.5745614,23.4130435 C83.5657895,23.5 82.5789474,23.8043478 81.6798246,24.2826087 L81.6578947,22 Z M86.504386,26.326087 C84.7719298,26.5652174 84.1140351,26.9782609 84.0482456,27.826087 C83.9824561,28.3695652 84.377193,28.8695652 84.9473684,28.9347826 C85.0350877,28.9347826 85.1008772,28.9347826 85.1885965,28.9347826 C85.6710526,28.8695652 86.1315789,28.6956522 86.504386,28.4130435 L86.504386,26.326087 L86.504386,26.326087 Z" id="Shape" fill="#004375"></path>
                    <polygon id="Path" fill="#004375" points="96 16 96 30 92 30 92 16"></polygon>
                    <path d="M99.1875,26.5314534 C99.3125,27.5943601 100.3125,28.462039 101.4375,28.462039 C102.479167,28.483731 103.479167,28.1583514 104.333333,27.5292842 L105,29.35141 C103.9375,30.4577007 102.5,31 100.75,31 C97.9375,31 96,28.9175705 96,25.9457701 C96,23.2125813 98.125,21 100.75,21 C100.770833,21 100.791667,21 100.8125,21 C103.3125,21 104.979167,22.670282 104.979167,25.186551 L104.041667,26.5314534 L99.1875,26.5314534 Z M102.395833,24.8394794 C102.333333,23.7982646 101.729167,23.1475054 100.770833,23.1475054 C99.8333333,23.1475054 99.2291667,23.7982646 99.0833333,24.8394794 L102.395833,24.8394794 Z" id="Shape" fill="#004375"></path>
                    <path d="M113.268817,23.6486486 C112.88172,23.4684685 112.494624,23.3558559 112.064516,23.3108108 C111.268817,23.2432432 110.645161,23.7387387 109.935484,24.8873874 L109.935484,30 L106.602151,30 L106.602151,24.0990991 C106.602151,21.8693694 106.537634,21.4864865 106,20.7207207 L108.83871,20 C109.505376,20.472973 109.741935,21.0135135 109.806452,22.2747748 C110.408602,20.8558559 111.354839,20 112.387097,20 C112.946237,20 113.526882,20.1576577 114,20.4504505 L113.268817,23.6486486 Z" id="Path" fill="#004375"></path>
                    <path d="M124.990299,25.6566059 C125.17157,28.6758408 122.792394,31 119.529525,31 C117.71682,31 116.289314,30.4786933 115.292327,29.4578009 C114.45395,28.5455141 113.978115,27.3725739 114.000774,26.1561915 C114.000774,23.2238411 116.153361,21.1820564 119.370913,21.0082874 C122.429853,20.8562396 124.809029,22.8111399 124.990299,25.6566059 Z M117.490232,25.8520959 C117.490232,27.2856895 118.419243,28.4151874 119.62016,28.4151874 C120.821077,28.4151874 121.455524,27.5897851 121.455524,26.0910282 C121.455524,24.7443191 120.503854,23.6582634 119.370913,23.6582634 C118.260631,23.6582634 117.490232,24.5488291 117.490232,25.8520959 L117.490232,25.8520959 Z" id="Shape" fill="#004375"></path>
                    <path d="M24.9803922,49.5 C24.9803922,50.3421053 24.3006536,51 23.4901961,51 C22.6797386,51 22,50.3157895 22,49.5 C22,48.6842105 22.6797386,48 23.4901961,48 C24.3267974,48 24.9803922,48.6578947 24.9803922,49.5 C25.0065359,49.5 25.0065359,49.5 24.9803922,49.5 Z" id="Path" fill="#4A72B0"></path>
                    <path d="M21,49.5 C21,50.3421053 20.3157895,51 19.5,51 C18.6842105,51 18,50.3157895 18,49.5 C18,48.6842105 18.6842105,48 19.5,48 C20.3421053,48 21,48.6578947 21,49.5 C21,49.5 21,49.5 21,49.5 Z" id="Path" fill="#4A72B0"></path>
                    <path d="M17,49.5 C17,50.3421053 16.3157895,51 15.5,51 C14.6578947,51 14,50.3157895 14,49.5 C14,48.6578947 14.6842105,48 15.5,48 C15.5,48 15.5,48 15.5,48 C16.3421053,48 17,48.6578947 17,49.5 C17,49.5 17,49.5 17,49.5 Z" id="Path" fill="#4A72B0"></path>
                    <path d="M33.485778,14.2582647 L24.3614055,14.2582647 C24.0267708,13.6969181 23.5805912,13.2253869 23.0451757,12.8436712 L27.8192973,7.63437453 C28.7339654,7.90382091 29.6932515,7.34247429 29.9609593,6.42186582 C30.228667,5.50125735 29.6709426,4.53574115 28.7562744,4.26629476 C27.8416062,3.99684838 26.8823201,4.55819501 26.6146124,5.47880348 C26.5030675,5.88297305 26.5476854,6.33205036 26.7261573,6.71376606 L21.8404908,12.2598707 C20.9927496,11.9904244 20.1003904,11.9679705 19.2526492,12.1700553 L13.4300056,2.62716261 C13.9208031,1.7963696 13.6307864,0.74103794 12.8053542,0.247052908 C11.9799219,-0.246932125 10.9313999,0.0225142564 10.4406023,0.853307266 C9.9498048,1.68410028 10.2398215,2.73943194 11.0652538,3.23341697 C11.4221974,3.43550175 11.846068,3.52531722 12.2699387,3.43550175 L17.9587284,12.708948 C17.3563859,13.0906638 16.8209704,13.6295565 16.4640268,14.2358109 L6.51422197,14.2358109 C2.9224763,14.2582647 0,17.1997211 0,20.8147934 L0,49.4434714 C0,53.0585437 2.9224763,56 6.51422197,56 C6.51422197,56 6.51422197,56 6.51422197,56 L33.485778,56 C37.0775237,56 40,53.0585437 40,49.4434714 L40,20.8147934 C40,17.1997211 37.0775237,14.2582647 33.485778,14.2582647 Z M38.4829894,48.5902245 C38.4829894,51.9583043 36.3190184,54.495591 32.6157278,54.495591 L7.40658115,54.495591 C3.90407139,54.495591 1.53931958,52.1603891 1.53931958,48.5902245 L1.53931958,21.6680402 C1.53931958,18.2325989 3.85945343,15.7626737 7.40658115,15.7626737 L32.6157278,15.7626737 C36.0290017,15.7626737 38.4829894,18.0978757 38.4829894,21.6680402 L38.4829894,48.5902245 Z" id="Shape" fill="#CA611F"></path>
                    <path d="M21.4664012,27.4277168 L15.4435042,33.4596211 C14.8521653,34.0518445 14.8521653,34.7537388 15.4435042,35.3459621 L18.0935789,38 L26,30.0817547 L23.3499253,27.4277168 C22.7804878,26.8574277 22.0577402,26.8574277 21.4664012,27.4277168 Z" id="Path" fill="#004375"></path>
                    <path d="M30.931642,18 L10.068358,18 C7.27202255,18 5,20.3397983 5,23.21955 L5,41.78045 C5,44.6602017 7.27202255,47 10.068358,47 L30.931642,47 C33.7279774,47 36,44.6602017 36,41.78045 L36,23.21955 C36,20.3397983 33.7279774,18 30.931642,18 Z M30.34179,37.4608223 C30.34179,37.4608223 30.0577872,39.1706749 28.9654686,39.0356866 C28.9654686,39.0356866 27.8513037,39.193173 27.7639183,40.0256012 C27.7639183,40.0256012 27.7857646,41.2629946 26.3657505,41.3529868 C26.3657505,41.3529868 24.9020437,41.8479441 24.7054264,43.0628394 C24.5525018,44.007758 23.0232558,44.6826998 23.0232558,44.6826998 L18.5229035,40.0705974 L15.0274841,36.4709077 C14.3284003,35.7509697 14.3284003,34.5585725 15.0274841,33.8386346 C15.0274841,33.8386346 15.0274841,33.8386346 15.0274841,33.8386346 L17.1247357,31.7013189 C17.1247357,31.7013189 16.9936575,29.5865012 14.4813249,28.9790535 C11.9689922,28.3716059 10.2649753,24.6369279 10.2649753,24.6369279 C9.89358703,23.7820016 9.76250881,22.837083 9.84989429,21.8921645 L9.87174066,21.7796742 L9.98097252,21.7571761 C10.8985201,21.6671839 11.8160677,21.8021722 12.6462297,22.1846393 C12.6462297,22.1846393 16.2727273,23.9169899 16.8625793,26.5267649 C17.4524313,29.13654 19.5059901,29.2490303 19.5059901,29.2490303 L21.7343199,26.9542281 C22.4334038,26.2342901 23.5912615,26.2342901 24.2903453,26.9542281 L27.7857646,30.5539178 L32.875969,35.7959659 C32.875969,35.7734678 30.8224101,36.0659426 30.34179,37.4608223 Z" id="Shape" fill="#004375"></path>
                    <path d="M112.609064,49 L105.636002,36.9396828 L87.9090291,36.9396828 C87.3656737,36.9177549 86.958157,36.4572701 87.0034367,35.9529296 C87.0260765,35.4705169 87.4335931,35.0977434 87.9090291,35.0758156 L106.767992,35.0758156 L112.609064,45.1187706 L118.155818,35.5582283 C118.382216,35.0758156 118.948211,34.8784649 119.423647,35.0758156 C119.921723,35.2950941 120.125481,35.8432903 119.921723,36.3037751 C119.899083,36.3695587 119.853803,36.4134144 119.831164,36.4791979 L112.609064,49 Z" id="Path" fill="#CA611F"></path>
                    <path d="M95.9655914,39.8291457 L95.9655914,50.0636516 C95.9655914,50.5862647 96.4150538,51 96.9827957,51 C97.5505376,51 98,50.5862647 98,50.0636516 L98,38 L88.0172043,38 C87.4494624,38 87,38.4137353 87,38.9363484 C87,39.4589615 87.4494624,39.8726968 88.0172043,39.8726968 C88.0172043,39.8726968 88.0172043,39.8726968 88.0172043,39.8726968 L95.9655914,39.8291457 Z" id="Path" fill="#CA611F"></path>
                    <path d="M113.157976,53.453191 C112.940161,53.9299558 112.373842,54.1342835 111.916431,53.9072527 C111.720397,53.8164404 111.567927,53.6575188 111.480801,53.453191 L103.79193,39.1956548 L100.873209,39.1956548 L100.873209,49.8434008 C100.873209,50.3882748 100.459361,50.8196334 99.9366046,50.8196334 C99.4138485,50.8196334 99,50.3882748 99,49.8434008 C99,49.8434008 99,49.8434008 99,49.8434008 L99,37.2658927 L104.881006,37.2658927 L112.330279,51.0466642 L121.260695,34.4961165 C121.522073,34.0193518 122.088392,33.8604302 122.524022,34.1328672 C122.981434,34.4053042 123.133904,34.9955844 122.872526,35.449646 L113.157976,53.453191 Z" id="Path" fill="#CA611F"></path>
                </g>
            </g>
        </g>
    </g>
</svg>