<?xml version="1.0" encoding="UTF-8"?>
<svg width="38px" height="13px" viewBox="0 0 38 13" version="1.1" xmlns="http://www.w3.org/2000/svg" xmlns:xlink="http://www.w3.org/1999/xlink">
    <!-- Generator: Sketch 63.1 (92452) - https://sketch.com -->
    <title>Visa_Inc._logo</title>
    <desc>Created with Sketch.</desc>
    <g id="Page-1" stroke="none" stroke-width="1" fill="none" fill-rule="evenodd">
        <g id="Home" transform="translate(-568.000000, -797.000000)" fill-rule="nonzero">
            <g id="Visa_Inc._logo" transform="translate(568.000000, 797.000000)">
                <polygon id="polygon9" fill="#00579F" points="16.4262175 12.0910807 13.3555057 12.0910807 15.2761489 0.215266189 18.3466928 0.215266189"></polygon>
                <path d="M27.5578206,0.505595968 C26.9521413,0.265305676 25.9914839,-4.35944249e-06 24.8036338,-4.35944249e-06 C21.7712072,-4.35944249e-06 19.6357973,1.61704352 19.6226997,3.92893502 C19.597512,5.63464347 21.1515908,6.58203538 22.3139174,7.15077278 C23.5019354,7.73193609 23.9057776,8.11126228 23.9057776,8.62928852 C23.8936875,9.42488279 22.9457919,9.79161514 22.0617049,9.79161514 C20.8357375,9.79161514 20.1788433,9.60253976 19.1805723,9.15990859 L18.7762264,8.97016154 L18.3465249,11.6360236 C19.0667241,11.9641349 20.3936101,12.2553043 21.7712072,12.268066 C24.9932129,12.268066 27.0908414,10.6760379 27.1156932,8.21234876 C27.1279512,6.860443 26.3073372,5.82455843 24.5381558,4.97808509 C23.4641539,4.43470327 22.8064201,4.06830675 22.8064201,3.5123311 C22.819014,3.00689869 23.3627316,2.48920828 24.5750977,2.48920828 C25.5733687,2.4638527 26.3068334,2.70380716 26.8624733,2.94392953 L27.1402092,3.07003576 L27.5578206,0.505595968 L27.5578206,0.505595968 L27.5578206,0.505595968 Z" id="path11" fill="#00579F"></path>
                <path d="M31.6390614,7.88390165 C31.8919455,7.20165186 32.8650289,4.56114533 32.8650289,4.56114533 C32.8522671,4.58650091 33.1174092,3.8663017 33.2690389,3.42417428 L33.4836378,4.44746501 C33.4836378,4.44746501 34.065137,7.29014451 34.1914111,7.88390165 C33.7115022,7.88390165 32.2455803,7.88390165 31.6390614,7.88390165 L31.6390614,7.88390165 Z M35.4294686,0.215266189 L33.0542722,0.215266189 C32.321815,0.215266189 31.7653355,0.429865066 31.4493144,1.20060751 L26.8881647,12.0909128 L30.1101703,12.0909128 C30.1101703,12.0909128 30.6406225,10.6251588 30.7546386,10.3094735 C31.1081055,10.3094735 34.2424581,10.3094735 34.6971794,10.3094735 C34.7853362,10.7264132 35.0635759,12.0909128 35.0635759,12.0909128 L37.9067591,12.0909128 L35.4294686,0.215266189 L35.4294686,0.215266189 L35.4294686,0.215266189 Z" id="path13" fill="#00579F"></path>
                <path d="M10.7907301,0.215266189 L7.78349123,8.31343524 L7.45487621,6.67103178 C6.89890056,4.77591212 5.1552427,2.71690474 3.20941188,1.69311026 L5.96393456,12.0784869 L9.21112789,12.0784869 L14.0377555,0.215266189 L10.7907301,0.215266189 L10.7907301,0.215266189 L10.7907301,0.215266189 Z" id="path15" fill="#00579F"></path>
                <path d="M4.99101915,0.215266189 L0.0505432758,0.215266189 L3.48043707e-08,0.455220645 C3.85388018,1.44072989 6.40622989,3.81626221 7.45487621,6.67153554 L6.38087432,1.21353718 C6.20405693,0.455052727 5.66067511,0.240285933 4.99101915,0.215266189 L4.99101915,0.215266189 Z" id="path17" fill="#FAA61A"></path>
            </g>
        </g>
    </g>
</svg>